<svg width="122" height="254" viewBox="0 0 122 254" fill="none" xmlns="http://www.w3.org/2000/svg">
<path d="M265.501 167.57C239.39 176.102 146.735 189.891 112.621 182.31C86.2013 176.439 60.6947 157.116 64.1831 139.197C67.2834 123.271 88.4973 118.289 98.4284 117.425C115.297 115.957 126.883 126.864 117.822 131.507C89.6093 145.964 55.0826 87.1088 44.4745 72.7898" stroke="#C5C5C5" stroke-opacity="0.62" stroke-linecap="round"/>
<path d="M39.0345 44.4976C32.8666 39.5952 27.577 46.9492 28.9567 50.4859C26.032 47.7179 17.502 49.7048 19.2645 57.0901C20.8824 64.2445 35.346 64.5011 36.5873 64.5799C37.8286 64.6588 37.8286 64.6587 38.4621 63.3858C39.0956 62.1128 44.561 48.9469 39.0345 44.4976Z" fill="#9D101E"/>
<path d="M13.4761 49.2298L1.15625 45.6489" stroke="#D9D9D9" stroke-linecap="round"/>
<path d="M20.6121 40.5048L14.8778 28.9971" stroke="#D9D9D9" stroke-linecap="round"/>
<path d="M33.2726 35.2217L35.7828 22.6119" stroke="#D9D9D9" stroke-linecap="round"/>
</svg>
