<svg width="422" height="412" viewBox="0 0 422 412" fill="none" xmlns="http://www.w3.org/2000/svg">
<path d="M37 309.331C55 284.331 108.096 241.397 149.865 273.433C177.516 294.641 172.984 291.236 201.686 311.729C220.5 323.331 245.741 322.912 258.5 303.331C274.5 273.433 261.07 260.079 267.516 195.405C270.011 170.37 275.64 137.328 296.719 132.287C315.453 127.807 331.267 148.282 337.083 158.589C346.963 176.096 340.872 193.978 331.4 186.47C301.907 163.091 348.532 96.8438 358.79 78.3404" stroke="#C5C5C5" stroke-linecap="round"/>
<path d="M148.324 259.648C136.857 253.297 122.884 249.489 109.999 252.501" stroke="#C4C4C4" stroke-linecap="round"/>
<path d="M26.2047 317.216C17.1867 312.546 12.2747 322.973 14.8876 327.065C10.5032 324.297 0.171865 328.785 4.20988 337.592C8.00814 346.145 26.4115 343.061 28.0047 342.868C29.5979 342.674 29.5979 342.674 30.0905 340.935C30.583 339.197 34.299 321.471 26.2047 317.216Z" fill="#9D101E"/>
<path d="M396.243 54.0755C398.508 45.0001 387.96 42.8997 384.817 46.1294C386.37 41.608 380.029 33.3672 372.915 38.9028C365.979 44.1686 372.813 59.9245 373.338 61.3046C373.863 62.6847 373.863 62.6847 375.55 62.7435C377.237 62.8022 394.152 62.2352 396.243 54.0755Z" fill="#9D101E"/>
<path d="M382.648 31.2034L381.723 16" stroke="#D9D9D9"/>
<path d="M41.4187 333.963L56 329.56" stroke="#C5C5C5"/>
<path d="M395.257 35.6864L405.827 24.6734" stroke="#D9D9D9"/>
<path d="M39.9633 347.265L53.115 355.013" stroke="#C5C5C5"/>
<path d="M406.227 47.7263L421.326 45.4881" stroke="#D9D9D9"/>
<path d="M30.7722 360.714L36.4286 374.892" stroke="#D9D9D9"/>
</svg>
