<svg width="49" height="49" viewBox="0 0 49 49" fill="none" xmlns="http://www.w3.org/2000/svg">
<circle cx="24.5" cy="24.5" r="24.5" fill="#9D101E"/>
<path d="M13.334 35.6668L18.759 20.5001L28.5882 30.2126L13.334 35.6668ZM16.2798 32.7209L25.4382 29.4543L19.5173 23.5043L16.2798 32.7209ZM27.2465 25.0209L26.2548 24.0293L33.2548 17.0293C33.877 16.4071 34.6645 16.0911 35.6173 16.0814C36.5701 16.0716 37.3576 16.3779 37.9798 17.0001L38.4757 17.4959L37.484 18.4876L36.9298 17.9334C36.5604 17.564 36.1326 17.3744 35.6465 17.3647C35.1604 17.355 34.7229 17.5446 34.334 17.9334L27.2465 25.0209ZM22.609 20.5001L21.6173 19.5084L22.4923 18.6334C22.9395 18.1862 23.1486 17.6758 23.1194 17.1022C23.0902 16.5286 22.8812 16.0473 22.4923 15.6584L21.6757 14.8418L22.6673 13.8501L23.4257 14.6084C24.1062 15.289 24.4416 16.1397 24.4319 17.1605C24.4222 18.1814 24.077 19.0321 23.3965 19.7126L22.609 20.5001ZM24.9715 22.7459L23.9798 21.7543L28.4132 17.3209C28.7826 16.9515 28.9625 16.48 28.9527 15.9064C28.943 15.3328 28.7534 14.8612 28.384 14.4918L26.6048 12.7126L27.5965 11.7209L29.434 13.5584C30.0368 14.1807 30.3479 14.9633 30.3673 15.9064C30.3868 16.8494 30.0854 17.6321 29.4632 18.2543L24.9715 22.7459ZM29.5798 27.3834L28.5882 26.3918L29.959 25.0209C30.6395 24.3404 31.4562 23.9904 32.409 23.9709C33.3618 23.9515 34.1784 24.2821 34.859 24.9626L36.3465 26.4501L35.3548 27.4418L33.8382 25.9251C33.3909 25.4779 32.9243 25.2543 32.4382 25.2543C31.952 25.2543 31.4854 25.4779 31.0382 25.9251L29.5798 27.3834Z" fill="white"/>
</svg>
