<svg width="49" height="49" viewBox="0 0 49 49" fill="none" xmlns="http://www.w3.org/2000/svg">
<circle cx="24.5" cy="24.5" r="24.5" fill="#9D101E"/>
<path d="M24.8409 36.1227C24.947 36.1227 25.0689 36.0966 25.2068 36.0444C25.3447 35.9923 25.4561 35.9245 25.5409 35.8411L36.2636 25.2653C36.5394 24.9942 36.7462 24.6847 36.8841 24.3371C37.022 23.9894 37.0909 23.6418 37.0909 23.2941C37.0909 22.9395 37.022 22.5849 36.8841 22.2303C36.7462 21.8757 36.5394 21.5628 36.2636 21.2916L30.5364 15.6596C30.2606 15.3884 29.9424 15.185 29.5818 15.0494C29.2212 14.9139 28.8606 14.8461 28.5 14.8461C28.1465 14.8461 27.7929 14.9139 27.4394 15.0494C27.0859 15.185 26.7712 15.3884 26.4955 15.6596L25.9227 16.2228L28.5 18.7885C28.7758 19.0805 29.0197 19.4195 29.2318 19.8054C29.4439 20.1913 29.55 20.6137 29.55 21.0726C29.55 21.8652 29.2371 22.564 28.6114 23.169C27.9856 23.7739 27.2697 24.0763 26.4636 24.0763C25.9333 24.0763 25.4932 23.9981 25.1432 23.8417C24.7932 23.6852 24.473 23.4627 24.1827 23.1739L21.85 20.8849L16.0909 26.5482C15.9848 26.6525 15.9106 26.7623 15.8682 26.8775C15.8258 26.9928 15.8045 27.1163 15.8045 27.2481C15.8045 27.5116 15.8947 27.732 16.075 27.9093C16.2553 28.0866 16.4798 28.1752 16.7485 28.1752C16.8828 28.1752 17.0083 28.1439 17.125 28.0814C17.2417 28.0188 17.3424 27.9458 17.4273 27.8623L21.8182 23.5444L23.1545 24.8586L18.7955 29.1452C18.6894 29.2495 18.6152 29.3642 18.5727 29.4894C18.5303 29.6145 18.5091 29.7397 18.5091 29.8648C18.5091 30.1151 18.6045 30.3342 18.7955 30.5219C18.9864 30.7096 19.2091 30.8035 19.4636 30.8035C19.5909 30.8035 19.7129 30.7774 19.8295 30.7253C19.9462 30.6731 20.047 30.6053 20.1318 30.5219L24.5227 26.204L25.8591 27.5181L21.5 31.8048C21.4152 31.8882 21.3462 31.996 21.2932 32.1281C21.2402 32.2602 21.2136 32.3923 21.2136 32.5244C21.2136 32.7747 21.3091 32.9937 21.5 33.1815C21.6909 33.3692 21.9136 33.4631 22.1682 33.4631C22.2955 33.4631 22.4121 33.4422 22.5182 33.4005C22.6242 33.3588 22.7303 33.2858 22.8364 33.1815L27.2273 28.8636L28.5636 30.1777L24.1727 34.4956C24.0667 34.5999 23.9924 34.7146 23.95 34.8398C23.9076 34.965 23.8864 35.0797 23.8864 35.184C23.8864 35.476 23.9712 35.7055 24.1409 35.8723C24.3106 36.0392 24.5439 36.1227 24.8409 36.1227ZM24.8429 38C24.1416 38 23.5152 37.7445 22.9636 37.2334C22.4121 36.7224 22.0833 36.0901 21.9773 35.3367C21.2561 35.2349 20.6515 34.9441 20.1636 34.4643C19.6758 33.9846 19.3788 33.3901 19.2727 32.6809C18.5515 32.5766 17.9523 32.2793 17.475 31.7891C16.9977 31.2989 16.7061 30.7096 16.6 30.0213C15.8152 29.917 15.1682 29.6041 14.6591 29.0826C14.15 28.5611 13.8955 27.9353 13.8955 27.2053C13.8955 26.8506 13.9668 26.4955 14.1094 26.1399C14.252 25.7843 14.4565 25.4719 14.7227 25.2028L21.85 18.194L25.35 21.6358C25.5197 21.8027 25.7035 21.933 25.9015 22.0269C26.0995 22.1208 26.2975 22.1677 26.4955 22.1677C26.7712 22.1677 27.0311 22.0478 27.275 21.8079C27.5189 21.568 27.6409 21.3109 27.6409 21.0365C27.6409 20.9145 27.6038 20.7753 27.5295 20.6189C27.4553 20.4625 27.3333 20.3008 27.1636 20.1339L22.6136 15.6596C22.3379 15.3884 22.0197 15.185 21.6591 15.0494C21.2985 14.9139 20.9379 14.8461 20.5773 14.8461C20.2237 14.8461 19.8702 14.9139 19.5167 15.0494C19.1631 15.185 18.8491 15.3869 18.5746 15.6551L13.7364 20.4155C13.4394 20.7076 13.2326 21.0152 13.1159 21.3385C12.9992 21.6619 12.9303 22.0269 12.9091 22.4337C12.8879 22.8404 12.9674 23.2368 13.1477 23.6227C13.328 24.0086 13.5455 24.3579 13.8 24.6708L12.4318 26.0163C12.0076 25.5574 11.6629 25.0046 11.3977 24.3579C11.1326 23.7113 11 23.0542 11 22.3867C11 21.761 11.122 21.1612 11.3659 20.5876C11.6098 20.014 11.9545 19.5081 12.4 19.0701L17.2045 14.3454C17.6712 13.8865 18.1993 13.5476 18.7889 13.3285C19.3784 13.1095 19.983 13 20.6025 13C21.222 13 21.8235 13.1095 22.4068 13.3285C22.9902 13.5476 23.5152 13.8865 23.9818 14.3454L24.5545 14.9086L25.1273 14.3454C25.5939 13.8865 26.122 13.5476 26.7116 13.3285C27.3012 13.1095 27.9057 13 28.5252 13C29.1448 13 29.7462 13.1095 30.3295 13.3285C30.9129 13.5476 31.4379 13.8865 31.9045 14.3454L37.6 19.9462C38.0667 20.4051 38.4167 20.9269 38.65 21.5117C38.8833 22.0964 39 22.6909 39 23.2952C39 23.8994 38.8833 24.4883 38.65 25.062C38.4167 25.6356 38.0667 26.1519 37.6 26.6108L26.8773 37.1552C26.6015 37.4264 26.2883 37.635 25.9376 37.781C25.5869 37.927 25.222 38 24.8429 38Z" fill="white"/>
</svg>
