<svg width="49" height="49" viewBox="0 0 49 49" fill="none" xmlns="http://www.w3.org/2000/svg">
<circle cx="24.5" cy="24.5" r="24.5" fill="#9D101E"/>
<path d="M33.7215 26.4976C33.4397 26.4976 33.2055 26.3957 33.0187 26.192C32.832 25.9883 32.7386 25.7359 32.7386 25.4348V21.8921H29.4432C29.1631 21.8921 28.9283 21.7897 28.7388 21.5848C28.5493 21.3799 28.4545 21.126 28.4545 20.8231C28.4545 20.5202 28.5493 20.2684 28.7388 20.0676C28.9283 19.8669 29.1631 19.7665 29.4432 19.7665H32.7386V16.2238C32.7386 15.9227 32.8339 15.6703 33.0245 15.4666C33.2151 15.2629 33.4513 15.161 33.733 15.161C34.0148 15.161 34.2491 15.2629 34.4358 15.4666C34.6225 15.6703 34.7159 15.9227 34.7159 16.2238V19.7665H38.0114C38.2915 19.7665 38.5263 19.8689 38.7158 20.0738C38.9053 20.2787 39 20.5326 39 20.8355C39 21.1384 38.9053 21.3902 38.7158 21.591C38.5263 21.7917 38.2915 21.8921 38.0114 21.8921H34.7159V25.4348C34.7159 25.7359 34.6206 25.9883 34.43 26.192C34.2394 26.3957 34.0032 26.4976 33.7215 26.4976ZM20.5455 23.628C19.0955 23.628 17.9091 23.132 16.9864 22.1401C16.0636 21.1481 15.6023 19.8728 15.6023 18.314C15.6023 16.7552 16.0636 15.4799 16.9864 14.4879C17.9091 13.496 19.0955 13 20.5455 13C21.9955 13 23.1818 13.496 24.1045 14.4879C25.0273 15.4799 25.4886 16.7552 25.4886 18.314C25.4886 19.8728 25.0273 21.1481 24.1045 22.1401C23.1818 23.132 21.9955 23.628 20.5455 23.628ZM10.9886 35C10.7085 35 10.4737 34.8981 10.2842 34.6944C10.0947 34.4907 10 34.2383 10 33.9372V31.6699C10 30.8433 10.1977 30.0934 10.5932 29.4203C10.9886 28.7472 11.5379 28.2453 12.2409 27.9147C13.8886 27.1353 15.3533 26.5862 16.635 26.2673C17.9167 25.9485 19.2184 25.7891 20.5401 25.7891C21.8619 25.7891 23.1653 25.9485 24.4506 26.2673C25.7358 26.5862 27.1913 27.1353 28.817 27.9147C29.5201 28.2689 30.0748 28.7767 30.4812 29.438C30.8877 30.0993 31.0909 30.8433 31.0909 31.6699V33.9372C31.0909 34.2383 30.9962 34.4907 30.8067 34.6944C30.6172 34.8981 30.3824 35 30.1023 35H10.9886ZM11.9773 32.8744H29.1136V31.6699C29.1136 31.292 29.0258 30.9318 28.85 30.5894C28.6742 30.2469 28.3996 29.993 28.0261 29.8277C26.4883 29.0247 25.1756 28.5051 24.0881 28.2689C23.0006 28.0327 21.8197 27.9147 20.5455 27.9147C19.2712 27.9147 18.0903 28.0386 17.0028 28.2866C15.9153 28.5346 14.5917 29.0483 13.0318 29.8277C12.7023 29.993 12.4441 30.2469 12.2574 30.5894C12.0706 30.9318 11.9773 31.292 11.9773 31.6699V32.8744ZM20.5455 21.5024C21.4023 21.5024 22.1108 21.2013 22.671 20.599C23.2312 19.9968 23.5114 19.2351 23.5114 18.314C23.5114 17.3929 23.2312 16.6312 22.671 16.029C22.1108 15.4267 21.4023 15.1256 20.5455 15.1256C19.6886 15.1256 18.9801 15.4267 18.4199 16.029C17.8597 16.6312 17.5795 17.3929 17.5795 18.314C17.5795 19.2351 17.8597 19.9968 18.4199 20.599C18.9801 21.2013 19.6886 21.5024 20.5455 21.5024Z" fill="white"/>
</svg>
