<svg width="49" height="49" viewBox="0 0 49 49" fill="none" xmlns="http://www.w3.org/2000/svg">
<circle cx="24.5" cy="24.5" r="24.5" fill="#9D101E"/>
<path d="M32.0025 19.2196C31.8959 19.2196 31.8052 19.1997 31.7306 19.1599C31.656 19.1201 31.5974 19.0505 31.5547 18.9511L30.6273 16.9224L28.2927 15.9678C28.1861 15.928 28.1115 15.8733 28.0689 15.8037C28.0262 15.7341 28.0049 15.6496 28.0049 15.5501C28.0049 15.4507 28.0262 15.3661 28.0689 15.2965C28.1115 15.2269 28.1861 15.1722 28.2927 15.1325L30.6273 14.2076L31.5547 12.2685C31.5974 12.1691 31.656 12.0994 31.7306 12.0597C31.8052 12.0199 31.8959 12 32.0025 12C32.1091 12 32.1997 12.0199 32.2743 12.0597C32.3489 12.0994 32.4075 12.1691 32.4502 12.2685L33.3776 14.2076L35.7122 15.1325C35.8188 15.1722 35.8934 15.2269 35.936 15.2965C35.9787 15.3661 36 15.4507 36 15.5501C36 15.6496 35.9787 15.7341 35.936 15.8037C35.8934 15.8733 35.8188 15.928 35.7122 15.9678L33.3776 16.9224L32.4502 18.9511C32.4075 19.0505 32.3489 19.1201 32.2743 19.1599C32.1997 19.1997 32.1091 19.2196 32.0025 19.2196ZM32.0025 37C31.9172 37 31.8319 36.9801 31.7466 36.9403C31.6613 36.9006 31.5974 36.8309 31.5547 36.7315L30.6273 34.7924L28.3247 33.8675C28.2181 33.8278 28.1435 33.7731 28.1009 33.7035C28.0582 33.6339 28.0369 33.5493 28.0369 33.4499C28.0369 33.3504 28.0582 33.2659 28.1009 33.1963C28.1435 33.1267 28.2181 33.072 28.3247 33.0322L30.6273 32.1074L31.5547 30.0489C31.5974 29.9495 31.656 29.8799 31.7306 29.8401C31.8052 29.8003 31.8959 29.7804 32.0025 29.7804C32.1091 29.7804 32.1997 29.8003 32.2743 29.8401C32.3489 29.8799 32.4075 29.9495 32.4502 30.0489L33.3776 32.1074L35.6802 33.0322C35.7868 33.072 35.8614 33.1267 35.9041 33.1963C35.9467 33.2659 35.968 33.3504 35.968 33.4499C35.968 33.5493 35.9467 33.6339 35.9041 33.7035C35.8614 33.7731 35.7868 33.8278 35.6802 33.8675L33.3776 34.7924L32.4502 36.7315C32.4075 36.8309 32.3436 36.9006 32.2583 36.9403C32.173 36.9801 32.0877 37 32.0025 37ZM17.9631 31.8389C17.7925 31.8389 17.6273 31.7942 17.4674 31.7047C17.3075 31.6152 17.1849 31.4909 17.0996 31.3317L15.0209 27.185L10.5437 25.3055C10.3731 25.2259 10.2399 25.1116 10.1439 24.9624C10.048 24.8132 10 24.6591 10 24.5C10 24.3409 10.048 24.1868 10.1439 24.0376C10.2399 23.8884 10.3731 23.7741 10.5437 23.6945L15.0209 21.815L17.0996 17.6981C17.1849 17.5191 17.3075 17.3848 17.4674 17.2953C17.6273 17.2058 17.7925 17.1611 17.9631 17.1611C18.1337 17.1611 18.2989 17.2058 18.4588 17.2953C18.6187 17.3848 18.7413 17.5091 18.8266 17.6683L20.9373 21.815L25.3825 23.6945C25.5744 23.7741 25.7183 23.8884 25.8143 24.0376C25.9102 24.1868 25.9582 24.3409 25.9582 24.5C25.9582 24.6591 25.9102 24.8132 25.8143 24.9624C25.7183 25.1116 25.5744 25.2259 25.3825 25.3055L20.9373 27.185L18.8266 31.3317C18.7413 31.5107 18.6187 31.64 18.4588 31.7196C18.2989 31.7991 18.1337 31.8389 17.9631 31.8389ZM17.9631 28.6468L19.4982 25.7828L22.6322 24.5L19.4982 23.2172L17.9631 20.3532L16.46 23.2172L13.294 24.5L16.46 25.7828L17.9631 28.6468Z" fill="white"/>
</svg>
