<svg width="28" height="27" viewBox="0 0 28 27" fill="none" xmlns="http://www.w3.org/2000/svg">
<g clip-path="url(#clip0_384_198)">
<path d="M25.0508 11.4572L24.4203 10.0866L23.0497 9.45613L24.4203 8.82565L25.0508 7.45504L25.6813 8.82565L27.0519 9.45613L25.6813 10.0866L25.0508 11.4572ZM21.5695 6.66008L20.61 4.63157L18.5815 3.67214L20.61 2.71271L21.5695 0.684204L22.5289 2.71271L24.5574 3.67214L22.5289 4.63157L21.5695 6.66008ZM10.6045 24.807C9.9832 24.807 9.4578 24.5923 9.02834 24.1628C8.59888 23.7334 8.38415 23.208 8.38415 22.5866H12.8249C12.8249 23.208 12.6102 23.7334 12.1807 24.1628C11.7513 24.5923 11.2259 24.807 10.6045 24.807ZM6.16375 20.8871V19.2423H15.0453V20.8871H6.16375ZM6.30082 17.5702C5.09468 16.7843 4.13981 15.8021 3.43623 14.6233C2.73265 13.4446 2.38086 12.1151 2.38086 10.6349C2.38086 8.40533 3.19409 6.47733 4.82055 4.85087C6.44701 3.22441 8.37501 2.41118 10.6045 2.41118C12.8341 2.41118 14.7621 3.22441 16.3885 4.85087C18.015 6.47733 18.8282 8.40533 18.8282 10.6349C18.8282 12.1151 18.481 13.4446 17.7866 14.6233C17.0921 15.8021 16.1327 16.7843 14.9083 17.5702H6.30082ZM6.90389 15.9254H14.3326C15.2098 15.3406 15.9043 14.5822 16.4159 13.6502C16.9276 12.7182 17.1835 11.7131 17.1835 10.6349C17.1835 8.82565 16.5393 7.27686 15.2509 5.98848C13.9625 4.7001 12.4138 4.05591 10.6045 4.05591C8.79533 4.05591 7.24654 4.7001 5.95816 5.98848C4.66978 7.27686 4.0256 8.82565 4.0256 10.6349C4.0256 11.7131 4.28144 12.7182 4.79314 13.6502C5.30484 14.5822 6.00842 15.3406 6.90389 15.9254Z" fill="#202020"/>
</g>
<defs>
<clipPath id="clip0_384_198">
<rect width="26.3158" height="26.3158" fill="white" transform="translate(0.736328 0.684204)"/>
</clipPath>
</defs>
</svg>
