<svg width="36" height="36" viewBox="0 0 36 36" fill="none" xmlns="http://www.w3.org/2000/svg">
<g clip-path="url(#clip0_384_74)">
<path d="M10 0C4.47715 0 0 4.47715 0 10V26C0 31.5228 4.47715 36 10 36H26C31.5228 36 36 31.5228 36 26V10C36 4.47715 31.5228 0 26 0H10ZM21.9727 14.9484L21.7688 17.6414H19.0055V26.993H15.518V17.6414H13.6547V14.9484H15.518V13.1414C15.518 12.3469 15.5391 11.1164 16.1156 10.35C16.7273 9.54141 17.5641 8.99297 19.0055 8.99297C21.3539 8.99297 22.3383 9.33047 22.3383 9.33047L21.8742 12.0867C21.8742 12.0867 21.1008 11.8617 20.3766 11.8617C19.6523 11.8617 19.0055 12.1219 19.0055 12.8461V14.9484H21.9727Z" fill="black"/>
</g>
<defs>
<clipPath id="clip0_384_74">
<rect width="36" height="36" fill="white"/>
</clipPath>
</defs>
</svg>
