<svg width="27" height="28" viewBox="0 0 27 28" fill="none" xmlns="http://www.w3.org/2000/svg">
<path d="M15.2878 24.9605L14.1365 23.8092L18.029 19.9167L7.55753 9.44518L3.66499 13.3377L2.51367 12.1864L4.04876 10.5965L2.51367 9.0614L4.84372 6.73136L3.6924 5.58004L4.84372 4.42873L6.02244 5.55263L8.32508 3.25L9.86016 4.78509L11.4501 3.25L12.6014 4.40132L8.70885 8.29386L19.1803 18.7654L23.0729 14.8728L24.2242 16.0241L22.6891 17.614L24.2242 19.1491L21.8667 21.5066L23.0181 22.6579L21.8667 23.8092L20.7154 22.6579L18.4128 24.9605L16.8777 23.4254L15.2878 24.9605Z" fill="#202020"/>
</svg>
