<svg width="27" height="27" viewBox="0 0 27 27" fill="none" xmlns="http://www.w3.org/2000/svg">
<path d="M3.17035 22.2566C2.64199 22.2566 2.19049 22.0684 1.81586 21.6922C1.44122 21.3159 1.25391 20.8636 1.25391 20.3353C1.25391 19.8069 1.44117 19.3554 1.81569 18.9808C2.19022 18.6062 2.64045 18.4188 3.16638 18.4188C3.26201 18.4188 3.35551 18.4234 3.44689 18.4325C3.53826 18.4417 3.65705 18.4645 3.80325 18.5011L9.2857 13.0186C9.24915 12.8724 9.22631 12.7536 9.21717 12.6623C9.20804 12.5709 9.20347 12.4774 9.20347 12.3817C9.20347 11.8558 9.3916 11.4056 9.76786 11.0311C10.1441 10.6565 10.5964 10.4693 11.1248 10.4693C11.6531 10.4693 12.1046 10.6578 12.4792 11.0349C12.8539 11.412 13.0412 11.8653 13.0412 12.3948C13.0412 12.4269 13.0138 12.6348 12.959 13.0186L15.9743 16.034C16.1205 15.9974 16.2393 15.9746 16.3307 15.9654C16.422 15.9563 16.5134 15.9517 16.6048 15.9517C16.6962 15.9517 16.7875 15.9563 16.8789 15.9654C16.9703 15.9746 17.0891 15.9974 17.2353 16.034L21.6212 11.648C21.5847 11.5018 21.5618 11.383 21.5527 11.2916C21.5436 11.2003 21.539 11.1068 21.539 11.0111C21.539 10.4852 21.7271 10.035 22.1034 9.66045C22.4796 9.28592 22.9319 9.09866 23.4603 9.09866C23.9886 9.09866 24.4401 9.28679 24.8148 9.66305C25.1894 10.0393 25.3767 10.4916 25.3767 11.02C25.3767 11.5483 25.1894 11.9998 24.8149 12.3744C24.4404 12.7491 23.9902 12.9364 23.4642 12.9364C23.3686 12.9364 23.2751 12.9318 23.1837 12.9227C23.0924 12.9135 22.9736 12.8907 22.8274 12.8541L18.4414 17.2401C18.478 17.3863 18.5008 17.5051 18.5099 17.5965C18.5191 17.6878 18.5236 17.7813 18.5236 17.877C18.5236 18.4029 18.3355 18.8531 17.9593 19.2277C17.583 19.6022 17.1307 19.7894 16.6023 19.7894C16.074 19.7894 15.6225 19.6022 15.2479 19.2277C14.8732 18.8531 14.6859 18.4029 14.6859 17.877C14.6859 17.7813 14.6905 17.6878 14.6996 17.5965C14.7088 17.5051 14.7316 17.3863 14.7682 17.2401L11.7528 14.2248C11.6066 14.2613 11.4878 14.2842 11.3965 14.2933C11.3051 14.3024 11.2114 14.307 11.1155 14.307C11.0835 14.307 10.8756 14.2796 10.4918 14.2248L5.00939 19.7072C5.04594 19.8534 5.06878 19.9722 5.07792 20.0636C5.08706 20.1549 5.09163 20.2485 5.09163 20.3441C5.09163 20.87 4.90349 21.3202 4.52723 21.6948C4.15099 22.0693 3.6987 22.2566 3.17035 22.2566ZM4.54338 10.1403L3.9882 8.94112L2.78899 8.38594L3.9882 7.83076L4.54338 6.63155L5.09856 7.83076L6.29777 8.38594L5.09856 8.94112L4.54338 10.1403ZM16.6048 8.7423L15.7628 6.92533L13.9458 6.08331L15.7628 5.24129L16.6048 3.42432L17.4468 5.24129L19.2638 6.08331L17.4468 6.92533L16.6048 8.7423Z" fill="#202020"/>
</svg>
