<svg width="121" height="14" viewBox="0 0 121 14" fill="none" xmlns="http://www.w3.org/2000/svg">
<path d="M120.14 13.35C116.16 13.35 114.21 10.17 112.78 7.84C111.33 5.48 110.56 4.45001 109.21 4.45001C107.86 4.45001 107.09 5.48 105.64 7.84C104.21 10.17 102.26 13.35 98.28 13.35C94.3 13.35 92.35 10.17 90.92 7.84C89.47 5.48 88.7 4.45001 87.36 4.45001C86.02 4.45001 85.24 5.48 83.8 7.84C82.37 10.17 80.42 13.35 76.44 13.35C72.46 13.35 70.51 10.17 69.08 7.84C67.63 5.48 66.86 4.45001 65.52 4.45001C64.18 4.45001 63.4 5.48 61.96 7.84C60.53 10.17 58.58 13.35 54.6 13.35C50.62 13.35 48.67 10.17 47.24 7.84C45.79 5.48 45.02 4.45001 43.68 4.45001C42.34 4.45001 41.56 5.48 40.12 7.84C38.69 10.17 36.74 13.35 32.76 13.35C28.78 13.35 26.83 10.16 25.4 7.84C23.95 5.48 23.18 4.45001 21.84 4.45001C20.5 4.45001 19.72 5.48 18.28 7.84C16.85 10.17 14.9 13.35 10.92 13.35C6.93998 13.35 4.99 10.17 3.56 7.84C2.11 5.48 1.34 4.45001 0 4.45001V0C3.98 0 5.92999 3.18001 7.35999 5.51001C8.80999 7.87001 9.57998 8.89999 10.92 8.89999C12.26 8.89999 13.04 7.87001 14.48 5.51001C15.91 3.18001 17.86 0 21.84 0C25.82 0 27.77 3.19001 29.2 5.51001C30.65 7.87001 31.42 8.89999 32.76 8.89999C34.1 8.89999 34.88 7.87001 36.32 5.51001C37.75 3.18001 39.7 0 43.68 0C47.66 0 49.61 3.18001 51.04 5.51001C52.49 7.87001 53.26 8.89999 54.6 8.89999C55.94 8.89999 56.72 7.87001 58.16 5.51001C59.59 3.18001 61.54 0 65.52 0C69.5 0 71.45 3.18001 72.88 5.51001C74.33 7.87001 75.1 8.89999 76.44 8.89999C77.78 8.89999 78.56 7.87001 80 5.51001C81.43 3.18001 83.38 0 87.36 0C91.34 0 93.29 3.18001 94.72 5.51001C96.17 7.87001 96.94 8.89999 98.28 8.89999C99.62 8.89999 100.4 7.87001 101.85 5.51001C103.28 3.18001 105.23 0 109.21 0C113.19 0 115.14 3.18001 116.57 5.51001C118.02 7.87001 118.79 8.89999 120.14 8.89999V13.35Z" fill="black"/>
</svg>
