<svg width="36" height="36" viewBox="0 0 36 36" fill="none" xmlns="http://www.w3.org/2000/svg">
<g clip-path="url(#clip0_384_76)">
<path d="M22.9219 18C22.9219 20.714 20.7141 22.9218 18 22.9218C15.2859 22.9218 13.0781 20.714 13.0781 18C13.0781 17.3461 13.2117 16.7203 13.4438 16.1508H10.7578V23.5195C10.7578 24.4687 11.5312 25.2422 12.4805 25.2422H23.5195C24.4688 25.2422 25.2422 24.4687 25.2422 23.5195V16.1508H22.5563C22.7953 16.7203 22.9219 17.3461 22.9219 18Z" fill="black"/>
<path d="M24.9187 14.1258V11.468V11.0742H24.525L21.8672 11.0813L21.8812 14.1328L24.9187 14.1258Z" fill="black"/>
<path d="M18.0008 21.1641C19.7446 21.1641 21.1719 19.7438 21.1719 17.993C21.1719 17.3039 20.9469 16.6641 20.5742 16.1438C19.9977 15.3492 19.0625 14.8219 18.0078 14.8219C16.9532 14.8219 16.018 15.3422 15.4414 16.1438C15.0688 16.6641 14.8438 17.3039 14.8438 17.993C14.8367 19.7438 16.2571 21.1641 18.0008 21.1641Z" fill="black"/>
<path d="M10 0C4.47715 0 0 4.47715 0 10V26C0 31.5228 4.47715 36 10 36H26C31.5228 36 36 31.5228 36 26V10C36 4.47715 31.5228 0 26 0H10ZM27 16.1508V23.5195C27 25.4391 25.4391 27 23.5195 27H12.4805C10.5609 27 9 25.4391 9 23.5195V16.1508V12.4734C9 10.5539 10.5609 8.99297 12.4805 8.99297H23.5195C25.4391 8.99297 27 10.5539 27 12.4734V16.1508Z" fill="black"/>
</g>
<defs>
<clipPath id="clip0_384_76">
<rect width="36" height="36" fill="white"/>
</clipPath>
</defs>
</svg>
