<svg width="32" height="33" viewBox="0 0 32 33" fill="none" xmlns="http://www.w3.org/2000/svg">
<path d="M8.15831 29.7369V24.079C6.90831 22.9387 5.93791 21.6064 5.24712 20.0823C4.55633 18.5582 4.21094 16.9518 4.21094 15.2632C4.21094 11.9738 5.36225 9.17772 7.66489 6.87509C9.96752 4.57246 12.7636 3.42114 16.053 3.42114C18.7943 3.42114 21.223 4.22706 23.3392 5.83891C25.4555 7.45075 26.8316 9.55053 27.4675 12.1382L29.2767 19.3093C29.3644 19.6163 29.3096 19.8959 29.1123 20.1481C28.9149 20.4003 28.6517 20.5264 28.3228 20.5264H25.2636V25.1317C25.2636 25.6744 25.0703 26.1391 24.6838 26.5256C24.2973 26.9121 23.8326 27.1054 23.2899 27.1054H20.0004V29.7369H18.0267V25.1317H23.2899V18.5527H27.0399L25.5596 12.6317C25.0333 10.5045 23.882 8.76654 22.1057 7.41785C20.3294 6.06917 18.3118 5.39483 16.053 5.39483C13.3118 5.39483 10.9818 6.34329 9.06291 8.24022C7.14405 10.1372 6.18462 12.4512 6.18462 15.1823C6.18462 16.595 6.47326 17.937 7.05054 19.2084C7.62785 20.4798 8.44666 21.6099 9.50699 22.5988L10.132 23.1909V29.7369H8.15831ZM15.0333 20.0659H17.007L17.1057 18.6185C17.3688 18.5746 17.6152 18.4819 17.8449 18.3402C18.0745 18.1985 18.2777 18.0391 18.4544 17.8619L19.8359 18.3225L20.757 16.7435L19.7701 15.954C19.8798 15.647 19.9346 15.329 19.9346 15.0001C19.9346 14.6711 19.8798 14.3532 19.7701 14.0461L20.757 13.2567L19.8359 11.6777L18.4544 12.1382C18.2716 11.9696 18.0615 11.8177 17.8239 11.6828C17.5863 11.5478 17.3469 11.4475 17.1057 11.3817L17.007 9.9343H15.0333L14.9346 11.3817C14.6934 11.4475 14.454 11.5478 14.2164 11.6828C13.9788 11.8177 13.7687 11.9696 13.5859 12.1382L12.2044 11.6777L11.2833 13.2567L12.2701 14.0461C12.1605 14.3532 12.1057 14.6711 12.1057 15.0001C12.1057 15.329 12.1605 15.647 12.2701 15.954L11.2833 16.7435L12.2044 18.3225L13.5859 17.8619C13.7626 18.0391 13.9658 18.1985 14.1954 18.3402C14.4251 18.4819 14.6715 18.5746 14.9346 18.6185L15.0333 20.0659ZM16.024 17.3027C15.3855 17.3027 14.8414 17.0792 14.3919 16.6323C13.9423 16.1853 13.7175 15.6425 13.7175 15.004C13.7175 14.3654 13.941 13.8214 14.388 13.3718C14.835 12.9222 15.3777 12.6975 16.0163 12.6975C16.6548 12.6975 17.1989 12.9209 17.6484 13.3679C18.098 13.8149 18.3228 14.3577 18.3228 14.9962C18.3228 15.6348 18.0993 16.1788 17.6523 16.6284C17.2053 17.0779 16.6626 17.3027 16.024 17.3027Z" fill="#202020"/>
</svg>
