<svg width="31" height="31" viewBox="0 0 31 31" fill="none" xmlns="http://www.w3.org/2000/svg">
<path d="M15.6339 15.0088C16.2257 15.0088 16.7313 14.7981 17.1509 14.3767C17.5705 13.9553 17.7803 13.4488 17.7803 12.857C17.7803 12.2652 17.5696 11.7596 17.1482 11.34C16.7268 10.9204 16.2202 10.7106 15.6285 10.7106C15.0367 10.7106 14.5311 10.9213 14.1115 11.3427C13.6919 11.7641 13.4821 12.2707 13.4821 12.8625C13.4821 13.4542 13.6928 13.9599 14.1142 14.3795C14.5356 14.799 15.0422 15.0088 15.6339 15.0088ZM15.6312 25.1711C18.3534 22.6945 20.3644 20.4482 21.6641 18.4321C22.9638 16.416 23.6137 14.6404 23.6137 13.1053C23.6137 10.6944 22.8431 8.72035 21.3021 7.18312C19.761 5.64588 17.8707 4.87726 15.6312 4.87726C13.3917 4.87726 11.5014 5.64588 9.96034 7.18312C8.41928 8.72035 7.64875 10.6944 7.64875 13.1053C7.64875 14.6404 8.31395 16.416 9.64436 18.4321C10.9748 20.4482 12.9704 22.6945 15.6312 25.1711ZM15.6312 27.5966C12.3359 24.7925 9.87462 22.1879 8.24743 19.783C6.62024 17.378 5.80664 15.1521 5.80664 13.1053C5.80664 10.0352 6.79421 7.58925 8.76936 5.76761C10.7445 3.94598 13.0318 3.03516 15.6312 3.03516C18.2306 3.03516 20.5179 3.94598 22.493 5.76761C24.4682 7.58925 25.4558 10.0352 25.4558 13.1053C25.4558 15.1521 24.6422 17.378 23.015 19.783C21.3878 22.1879 18.9265 24.7925 15.6312 27.5966Z" fill="#202020"/>
</svg>
