<svg width="33" height="33" viewBox="0 0 33 33" fill="none" xmlns="http://www.w3.org/2000/svg">
<path d="M21.4987 22.1228V18.6557L19.8331 15.5965C19.4252 15.6418 19.091 15.8174 18.8304 16.1234C18.5698 16.4293 18.4395 16.7862 18.4395 17.1941V24.9101L21.7026 30.2807H19.3233L16.4 25.4879V17.1941C16.4 16.401 16.6266 15.6928 17.0798 15.0696C17.5331 14.4465 18.1222 14.0102 18.8474 13.761L16.604 9.61404C16.1507 8.75293 15.9638 7.8465 16.0431 6.89475C16.1224 5.94299 16.4907 5.13853 17.1478 4.48137L19.1873 2.44189L28.6369 13.4551L29.9965 30.2807H27.923L26.6314 14.2369L19.0853 5.43312L18.6094 5.909C18.2922 6.22625 18.0996 6.60582 18.0316 7.04771C17.9636 7.48959 18.0316 7.90315 18.2355 8.28839L23.5382 18.1458V22.1228H21.4987ZM9.22786 22.1228V18.1458L14.5305 8.28839C14.7344 7.90315 14.8024 7.48959 14.7344 7.04771C14.6665 6.60582 14.4738 6.22625 14.1566 5.909L13.6807 5.43312L6.13466 14.2369L4.843 30.2807H2.76953L4.12918 13.4551L13.5787 2.44189L15.6182 4.48137C16.2754 5.13853 16.6436 5.94299 16.7229 6.89475C16.8022 7.8465 16.6153 8.75293 16.1621 9.61404L13.9187 13.761C14.6438 14.0102 15.233 14.4465 15.6862 15.0696C16.1394 15.6928 16.366 16.401 16.366 17.1941V25.4879L13.4428 30.2807H11.0634L14.3265 24.9101V17.1941C14.3265 16.7862 14.1962 16.4293 13.9356 16.1234C13.6751 15.8174 13.3408 15.6418 12.9329 15.5965L11.2673 18.6557V22.1228H9.22786Z" fill="#202020"/>
</svg>
