<svg width="244" height="50" viewBox="0 0 244 50" fill="none" xmlns="http://www.w3.org/2000/svg">
<path d="M211.559 33.4919C208.176 27.978 198.579 28.9341 195.619 34.48C191.878 40.8226 197.082 48.217 204.662 48.0576C206.907 47.9939 208.338 47.8664 209.639 46.8465C209.965 46.5915 210.225 46.3046 210.388 45.954C210.681 45.3485 210.615 44.711 209.932 44.3923C207.948 43.8186 205.215 45.221 203.133 44.2011C200.433 43.2768 199.783 40.8226 203.036 41.4282C203.524 41.5238 203.816 41.5238 204.142 41.5556C209.607 42.1293 214.975 39.5795 211.559 33.4919ZM204.467 38.3046C200.401 38.4003 200.596 33.7469 204.467 33.715C208.273 33.6831 208.501 38.4959 204.467 38.3046Z" fill="#9D101E"/>
<path d="M81.2335 47.8682C85.1186 49.1472 85.8451 43.0079 85.6872 39.8103C85.9714 32.424 79.6857 27.4358 72.9262 30.8572C72.7051 28.459 73.4632 25.5492 73.2737 23.215C73.1157 21.5203 71.6628 20.4971 70.1782 20.4011C68.7568 20.3052 67.4618 21.2645 67.0511 22.6714C65.4086 28.1712 66.1667 36.9965 66.451 41.8887C66.988 45.534 67.0827 47.7722 70.3677 48.06C74.2529 47.9001 73.1789 45.1822 72.7051 42.5282C72.5472 40.9295 72.3893 39.1388 72.5788 37.9557C72.863 34.95 79.4962 33.7989 79.97 37.7639C80.0648 40.194 78.7697 43.7113 79.5594 46.1735C79.7805 46.9728 80.4122 47.5804 81.2335 47.8682Z" fill="#9D101E"/>
<path d="M58.4008 30.5301C46.8617 24.8128 36.9335 39.4634 48.0781 46.805C59.6171 52.4248 69.9727 37.7742 58.4008 30.5301ZM57.809 39.0086C57.5131 44.7909 48.8013 44.7909 48.7356 38.9762C48.6698 33.0639 58.3021 33.1939 57.809 39.0086Z" fill="#9D101E"/>
<path d="M221.143 39.3129C221.268 35.9722 220.891 30.4998 217.718 30.977C216.462 31.1679 215.519 32.2178 215.268 33.4905C214.703 36.6085 214.828 42.6536 215.425 45.5807C215.614 46.567 216.336 47.3624 217.279 47.6487C220.891 48.6986 221.331 42.9717 221.143 39.4083C221.143 39.3447 221.143 39.3129 221.143 39.3129Z" fill="#9D101E"/>
<path d="M193.412 29.0801C191.543 27.8039 188.56 28.3144 186.168 28.2825C186.266 24.805 186.987 19.477 182.332 20.5299C181.578 20.6894 180.923 21.1998 180.628 21.9017C179.808 23.784 180.103 26.3364 179.841 28.3463C177.809 28.4101 175.219 27.9953 173.712 29.3672C173.318 29.6862 173.056 30.3562 172.99 31.0262C172.892 32.1109 173.712 33.1 174.826 33.2914C176.465 33.5785 178.399 33.3233 180.038 33.3871C180.005 36.6413 179.218 40.4378 180.3 43.5006C182.693 50.8704 196.198 48.0948 191.281 43.6601C190.855 43.2773 190.33 43.0539 189.773 42.9901C187.184 42.6392 185.774 42.3521 186.102 39.0022C186.102 38.9064 186.102 38.8107 186.102 38.715C186.102 37.056 186.102 35.2375 186.102 33.5785C188.2 33.419 190.527 33.6742 192.428 33.1C193.182 32.8766 193.805 32.2705 193.969 31.5048C194.231 30.5795 194.067 29.4948 193.412 29.0801Z" fill="#9D101E"/>
<path d="M221.656 22.1546C220.784 19.6817 218.001 20.7975 217.767 22.034C217.431 20.7372 214.682 19.7722 213.878 22.1546C213.073 24.4466 217.096 27.0982 217.431 27.3417C217.767 27.5851 217.767 27.5851 218.169 27.3417C218.571 27.0982 222.427 24.3862 221.656 22.1546Z" fill="#9D101E"/>
<path fill-rule="evenodd" clip-rule="evenodd" d="M223.557 35.6465C223.458 39.4262 222.966 44.5304 225.822 47.2763C226.052 47.5025 226.315 47.6963 226.61 47.8255C228.318 48.4716 230.78 47.7609 231.01 45.9518C231.043 45.7257 231.01 45.4996 230.977 45.2734C230.156 41.4937 228.58 35.0004 234.326 35.1296C237.314 34.9358 238.299 36.5187 237.577 39.5231C237.511 39.7815 237.478 40.0077 237.446 40.2661C237.084 43.2382 236.198 47.9224 240.401 47.9224C245.162 47.5348 244.275 37.6171 242.929 34.5804C241.025 29.6377 233.932 27.6348 229.795 30.9945C229.533 29.5731 228.777 28.604 227.136 28.6686C224.246 28.7978 223.918 32.3514 223.59 34.6773C223.59 34.7743 223.59 34.9035 223.59 35.0004C223.59 35.2588 223.557 35.4527 223.557 35.6465Z" fill="#9D101E"/>
<path fill-rule="evenodd" clip-rule="evenodd" d="M125.9 31.4571C123.19 29.5537 118.979 30.0699 116.106 31.4894C115.844 28.8439 117.216 25.8113 116.857 23.2626C116.628 20.5848 112.612 19.7137 111.274 21.9721C109.772 24.9725 110.36 29.9408 110.294 33.4252C110.49 37.8773 109.609 42.878 112.874 46.1042C116.595 49.7821 124.137 49.2336 127.206 45.8138C127.238 45.7816 127.271 45.7493 127.304 45.717C128.283 44.7814 129.165 43.4264 129.328 42.0714C130.242 38.329 129.067 33.7155 125.9 31.4571ZM119.893 44.3298C114.506 44.362 114.114 35.2964 119.86 35.2964C126.259 34.6834 125.606 44.6201 119.893 44.3298Z" fill="#9D101E"/>
<path fill-rule="evenodd" clip-rule="evenodd" d="M147.4 31.5671C144.77 29.6442 140.682 30.1657 137.894 31.5997C137.64 28.9272 138.971 25.8636 138.623 23.2889C138.401 20.5838 134.503 19.7039 133.204 21.9853C131.747 25.0163 132.317 30.0353 132.254 33.5552C132.444 38.0528 131.588 43.1045 134.757 46.3636C138.369 50.0791 145.689 49.525 148.667 46.0703C148.699 46.0377 148.731 46.0051 148.763 45.9725C149.713 45.0274 150.569 43.6586 150.727 42.2897C151.614 38.5091 150.474 33.8485 147.4 31.5671ZM141.57 44.6037C136.341 44.6363 135.961 35.4781 141.538 35.4781C147.749 34.8263 147.115 44.8644 141.57 44.6037Z" fill="#9D101E"/>
<path d="M109.069 46.0029C108.885 45.8152 108.885 45.8152 108.517 45.1739C108.149 44.5325 107.88 43.5707 107.88 42.4368V39.7476V39.5208C108.103 36.5077 106.732 33.527 103.003 31.097C91.815 25.3948 82.1889 40.0068 92.9943 47.329C97.3611 49.4998 101.537 48.625 104.342 46.3247C104.373 46.357 103.695 46.4546 103.968 46.6166L104.284 47.0508C104.411 47.3479 105.02 47.911 105.389 48.1769C105.941 48.5759 106.493 48.6306 107.045 48.6306C107.491 48.6306 108.75 48.5468 109.069 48.2552C109.356 48.0284 109.805 47.5245 109.621 46.9414C109.478 46.4866 109.253 46.1906 109.069 46.0029ZM102.429 39.5856C102.142 45.3527 93.6956 45.3527 93.6318 39.5532C93.5681 33.6566 102.907 33.7538 102.429 39.5856Z" fill="#9D101E"/>
<path d="M174.655 45.4724C174.466 45.2875 174.466 45.2875 174.088 44.6559C173.71 44.0243 173.434 43.077 173.434 41.9603V39.3118V39.0885C173.663 36.121 172.256 33.1855 168.427 30.7923C156.941 25.1765 147.058 39.5671 158.151 46.7784C162.635 48.9162 166.922 48.0547 169.801 45.7892C169.834 45.8211 169.137 45.9172 169.418 46.0768L169.743 46.5044C169.873 46.797 170.498 47.3515 170.876 47.6134C171.443 48.0063 172.01 48.0602 172.577 48.0602C173.035 48.0602 174.328 47.9777 174.655 47.6905C174.95 47.4672 175.411 46.9709 175.222 46.3966C175.075 45.9488 174.844 45.6572 174.655 45.4724ZM167.838 39.1523C167.543 44.832 158.871 44.832 158.806 39.1204C158.741 33.3131 168.329 33.4088 167.838 39.1523Z" fill="#9D101E"/>
<path d="M22.8429 48.6303C17.0775 43.6488 13.791 38.58 11.9498 35.1453C10.7304 32.8714 2.82361 18.1199 8.49595 9.76183C8.97684 9.05321 10.4138 7.32589 13.3567 7.32589C16.2341 7.1818 17.8894 8.96944 19.3162 10.6749C23.6335 15.8336 22.3075 21.3189 24.6862 21.9269C26.3449 21.9243 29.26 14.7003 34.4796 13.6865C39.6992 12.6727 41.3374 14.5797 42.4091 16.6287C43.4807 18.6777 43.3297 22.2254 42.4091 24.3716C41.2917 26.9764 40.2572 28.2817 36.4496 32.9301C34.3879 36.0502 32.5138 37.6413 32.9389 38.0538C33.4782 38.5747 36.8125 36.1553 39.1824 34.0876C43.5768 30.2537 50.2668 24.4155 49.4113 17.1653C49.3023 16.2478 48.7391 12.4826 45.6917 10.1584C41.8871 7.25785 35.1684 7.63772 31.587 10.1073C27.195 13.1358 26.9037 15.889 25.8017 15.6137C24.562 14.6501 26.3527 13.2735 24.1713 8.17536C23.6496 6.95607 21.557 3.43447 17.3964 1.8295C16.6046 1.52542 13.8389 0.496864 10.7543 1.30067C5.3662 2.70205 2.98834 8.64866 2.38523 10.1584C-2.27486 21.8216 6.0752 34.1886 9.01253 37.7309C11.9498 41.2732 21.2109 48.3748 22.8429 48.6303Z" fill="#9D101E"/>
<path d="M22.8429 48.6303L22.7655 49.1243C22.986 49.1588 23.2027 49.043 23.2965 48.8405C23.3904 48.638 23.3386 48.3978 23.1698 48.2519L22.8429 48.6303ZM11.9498 35.1453L12.3905 34.9091L12.3905 34.909L11.9498 35.1453ZM8.49595 9.76183L8.90967 10.0426L8.90968 10.0426L8.49595 9.76183ZM13.3567 7.32589V7.82589H13.3692L13.3817 7.82527L13.3567 7.32589ZM19.3162 10.6749L18.9327 10.9957L18.9327 10.9958L19.3162 10.6749ZM24.6862 21.9269L24.5624 22.4113L24.6237 22.427L24.687 22.4269L24.6862 21.9269ZM42.4091 24.3716L42.8686 24.5687L42.4091 24.3716ZM36.4496 32.9301L36.0628 32.6133L36.0466 32.6331L36.0325 32.6545L36.4496 32.9301ZM32.9389 38.0538L32.5907 38.4127L32.5915 38.4135L32.9389 38.0538ZM39.1824 34.0876L38.8537 33.7109L38.8537 33.7109L39.1824 34.0876ZM49.4113 17.1653L49.9078 17.1067L49.9078 17.1064L49.4113 17.1653ZM45.6917 10.1584L45.9949 9.76088L45.9948 9.76082L45.6917 10.1584ZM31.587 10.1073L31.8708 10.5189L31.587 10.1073ZM25.8017 15.6137L25.4949 16.0085L25.5782 16.0732L25.6805 16.0988L25.8017 15.6137ZM24.1713 8.17536L24.631 7.97867L24.1713 8.17536ZM17.3964 1.8295L17.5763 1.363L17.5756 1.36274L17.3964 1.8295ZM10.7543 1.30067L10.8801 1.78457L10.8803 1.78452L10.7543 1.30067ZM2.38523 10.1584L2.84954 10.344L2.84956 10.3439L2.38523 10.1584ZM23.1698 48.2519C17.4616 43.3198 14.2105 38.3042 12.3905 34.9091L11.5092 35.3815C13.3716 38.8558 16.6935 43.9777 22.516 49.0086L23.1698 48.2519ZM12.3905 34.909C11.7835 33.7771 9.52403 29.5607 8.11956 24.5989C6.70604 19.6052 6.20704 14.0248 8.90967 10.0426L8.08223 9.48105C5.11252 13.8568 5.73072 19.8312 7.15736 24.8713C8.59305 29.9433 10.8967 34.2395 11.5092 35.3816L12.3905 34.909ZM8.90968 10.0426C9.34222 9.40521 10.6458 7.82589 13.3567 7.82589V6.82589C10.1818 6.82589 8.61146 8.7012 8.08223 9.48106L8.90968 10.0426ZM13.3817 7.82527C15.9928 7.69451 17.5046 9.28869 18.9327 10.9957L19.6997 10.3541C18.2743 8.6502 16.4754 6.66909 13.3317 6.82652L13.3817 7.82527ZM18.9327 10.9958C21.0151 13.484 21.7413 16.0518 22.2422 18.1248C22.4879 19.1419 22.6916 20.1008 22.9878 20.8266C23.2901 21.5672 23.7421 22.2017 24.5624 22.4113L24.8101 21.4425C24.441 21.3482 24.1667 21.0689 23.9137 20.4488C23.6546 19.8138 23.4739 18.965 23.2142 17.89C22.7041 15.7787 21.9346 13.0245 19.6996 10.354L18.9327 10.9958ZM24.687 22.4269C25.068 22.4263 25.4073 22.2244 25.6823 22.0034C25.9688 21.7733 26.2637 21.4577 26.5635 21.1042C26.8656 20.748 27.1899 20.3323 27.5321 19.8929C27.8764 19.4507 28.2416 18.9806 28.6339 18.5033C30.2195 16.5739 32.1547 14.6474 34.5749 14.1773L34.3843 13.1956C31.5849 13.7394 29.4528 15.9318 27.8613 17.8684C27.4592 18.3577 27.0858 18.8384 26.743 19.2786C26.3981 19.7216 26.0869 20.1201 25.8009 20.4574C25.5126 20.7973 25.2668 21.0545 25.056 21.2239C24.8338 21.4024 24.7191 21.4269 24.6854 21.4269L24.687 22.4269ZM34.5749 14.1773C37.1235 13.6823 38.7131 13.9174 39.7738 14.455C40.8313 14.991 41.4476 15.8692 41.966 16.8604L42.8521 16.397C42.2989 15.3392 41.5603 14.2394 40.2259 13.563C38.8947 12.8883 37.0554 12.6768 34.3843 13.1956L34.5749 14.1773ZM41.966 16.8604C42.4491 17.7841 42.6745 19.0911 42.6562 20.457C42.638 21.818 42.3787 23.1741 41.9496 24.1745L42.8686 24.5687C43.3601 23.4229 43.6366 21.9321 43.6561 20.4704C43.6756 19.0136 43.4406 17.5222 42.8521 16.397L41.966 16.8604ZM41.9496 24.1745C40.8648 26.7032 39.8785 27.955 36.0628 32.6133L36.8364 33.247C40.6358 28.6085 41.7186 27.2495 42.8686 24.5687L41.9496 24.1745ZM36.0325 32.6545C35.0172 34.1909 34.0501 35.3484 33.3716 36.1945C33.0404 36.6076 32.756 36.9728 32.5854 37.2675C32.5016 37.4123 32.419 37.5833 32.3897 37.7624C32.357 37.962 32.3874 38.2154 32.5907 38.4126L33.2871 37.695C33.3841 37.7891 33.3801 37.9025 33.3765 37.924C33.3764 37.925 33.3866 37.8795 33.4509 37.7685C33.5766 37.5514 33.8099 37.2464 34.1517 36.8201C34.8194 35.9875 35.8203 34.7894 36.8668 33.2058L36.0325 32.6545ZM32.5915 38.4135C32.8282 38.6421 33.1393 38.6398 33.3331 38.6131C33.5466 38.5836 33.7787 38.5034 34.0089 38.4028C34.4746 38.1993 35.0447 37.8621 35.6515 37.4575C36.8713 36.6443 38.3147 35.5083 39.5112 34.4644L38.8537 33.7109C37.6803 34.7347 36.2715 35.8423 35.0968 36.6254C34.5065 37.019 33.9937 37.3181 33.6085 37.4864C33.4132 37.5718 33.2779 37.6112 33.1964 37.6224C33.0954 37.6364 33.1843 37.5958 33.2862 37.6942L32.5915 38.4135ZM39.5111 34.4644C41.7025 32.5526 44.5149 30.1009 46.6668 27.2059C48.8206 24.3084 50.3565 20.9093 49.9078 17.1067L48.9147 17.2239C49.3215 20.6715 47.9402 23.8166 45.8643 26.6093C43.7866 29.4044 41.0568 31.7888 38.8537 33.7109L39.5111 34.4644ZM49.9078 17.1064C49.7968 16.1717 49.217 12.2183 45.9949 9.76088L45.3885 10.556C48.2611 12.7469 48.8079 16.324 48.9147 17.2243L49.9078 17.1064ZM45.9948 9.76082C43.9768 8.22228 41.2243 7.57687 38.5477 7.61912C35.8711 7.66138 33.1935 8.39219 31.3031 9.6957L31.8708 10.5189C33.5619 9.35285 36.0343 8.65893 38.5635 8.619C41.0928 8.57907 43.602 9.19402 45.3885 10.5561L45.9948 9.76082ZM31.3031 9.6957C29.0469 11.2515 27.8381 12.7427 27.0579 13.8032C26.6545 14.3514 26.4121 14.7154 26.1888 14.9528C26.0837 15.0644 26.0177 15.1081 25.9815 15.1243C25.9609 15.1336 25.9507 15.1355 25.9229 15.1286L25.6805 16.0988C25.9283 16.1607 26.1682 16.1368 26.3916 16.0364C26.5994 15.943 26.7713 15.793 26.9171 15.638C27.1956 15.3419 27.5071 14.88 27.8634 14.3958C28.6023 13.3913 29.7351 11.9917 31.8708 10.5189L31.3031 9.6957ZM26.1086 15.2189C25.9194 15.0719 25.8546 14.9348 25.8273 14.7034C25.8115 14.5693 25.8101 14.4081 25.816 14.1948C25.8215 13.9976 25.8346 13.7275 25.8396 13.4541C25.8607 12.2894 25.7524 10.5996 24.631 7.97867L23.7116 8.37205C24.7716 10.8492 24.8586 12.3968 24.8397 13.4359C24.8347 13.7134 24.823 13.9296 24.8164 14.167C24.8103 14.3884 24.8094 14.6102 24.8342 14.8204C24.888 15.2774 25.0642 15.6737 25.4949 16.0085L26.1086 15.2189ZM24.631 7.97867C24.0782 6.68687 21.9068 3.03351 17.5763 1.363L17.2164 2.29599C21.2071 3.83543 23.2209 7.22527 23.7116 8.37205L24.631 7.97867ZM17.5756 1.36274C16.7689 1.05289 13.8747 -0.0291646 10.6282 0.816832L10.8803 1.78452C13.803 1.02289 16.4404 1.99796 17.2171 2.29626L17.5756 1.36274ZM10.6284 0.816773C7.78037 1.55752 5.75151 3.49312 4.37076 5.39518C2.98873 7.299 2.2248 9.21221 1.92091 9.97297L2.84956 10.3439C3.14877 9.5949 3.87533 7.77991 5.18002 5.98264C6.48599 4.18359 8.3401 2.44521 10.8801 1.78457L10.6284 0.816773ZM1.92092 9.97293C-0.472504 15.9631 0.485318 22.1086 2.38169 27.1656C4.27841 32.2235 7.13378 36.2485 8.62764 38.05L9.39742 37.4117C7.95395 35.671 5.16563 31.7414 3.31801 26.8144C1.47005 21.8865 0.582882 16.0169 2.84954 10.344L1.92092 9.97293ZM8.62764 38.05C10.1336 39.8661 13.2207 42.5552 16.1098 44.8075C17.5598 45.9378 18.973 46.9683 20.1304 47.7345C20.7086 48.1172 21.229 48.4381 21.6618 48.6732C22.0742 48.8972 22.4663 49.0774 22.7655 49.1243L22.9202 48.1363C22.8114 48.1193 22.5572 48.0216 22.1392 47.7945C21.7417 47.5786 21.2479 47.275 20.6824 46.9007C19.5527 46.1528 18.1611 45.1386 16.7246 44.0188C13.8409 41.7708 10.8288 39.1379 9.39742 37.4117L8.62764 38.05Z" fill="#9D101E"/>
</svg>
