<svg width="32" height="33" viewBox="0 0 32 33" fill="none" xmlns="http://www.w3.org/2000/svg">
<path d="M6.18267 29.7368C5.65635 29.7368 5.19583 29.5394 4.80109 29.1447C4.40635 28.75 4.20898 28.2894 4.20898 27.7631V7.36839C4.20898 6.84207 4.40635 6.38155 4.80109 5.98681C5.19583 5.59207 5.65635 5.3947 6.18267 5.3947H8.32083V3.42102H10.459V5.3947H21.6432V3.42102H23.7814V5.3947H25.9195C26.4458 5.3947 26.9064 5.59207 27.3011 5.98681C27.6958 6.38155 27.8932 6.84207 27.8932 7.36839V27.7631C27.8932 28.2894 27.6958 28.75 27.3011 29.1447C26.9064 29.5394 26.4458 29.7368 25.9195 29.7368H6.18267ZM6.18267 27.7631H25.9195V13.6184H6.18267V27.7631ZM6.18267 11.6447H25.9195V7.36839H6.18267V11.6447ZM16.0511 19.2105C15.6783 19.2105 15.3658 19.0844 15.1136 18.8322C14.8614 18.58 14.7353 18.2675 14.7353 17.8947C14.7353 17.5219 14.8614 17.2094 15.1136 16.9572C15.3658 16.705 15.6783 16.5789 16.0511 16.5789C16.4239 16.5789 16.7364 16.705 16.9886 16.9572C17.2408 17.2094 17.3669 17.5219 17.3669 17.8947C17.3669 18.2675 17.2408 18.58 16.9886 18.8322C16.7364 19.0844 16.4239 19.2105 16.0511 19.2105ZM10.7879 19.2105C10.4151 19.2105 10.1026 19.0844 9.85043 18.8322C9.59824 18.58 9.47214 18.2675 9.47214 17.8947C9.47214 17.5219 9.59824 17.2094 9.85043 16.9572C10.1026 16.705 10.4151 16.5789 10.7879 16.5789C11.1607 16.5789 11.4732 16.705 11.7254 16.9572C11.9776 17.2094 12.1037 17.5219 12.1037 17.8947C12.1037 18.2675 11.9776 18.58 11.7254 18.8322C11.4732 19.0844 11.1607 19.2105 10.7879 19.2105ZM21.3142 19.2105C20.9414 19.2105 20.6289 19.0844 20.3767 18.8322C20.1246 18.58 19.9985 18.2675 19.9985 17.8947C19.9985 17.5219 20.1246 17.2094 20.3767 16.9572C20.6289 16.705 20.9414 16.5789 21.3142 16.5789C21.6871 16.5789 21.9996 16.705 22.2517 16.9572C22.5039 17.2094 22.63 17.5219 22.63 17.8947C22.63 18.2675 22.5039 18.58 22.2517 18.8322C21.9996 19.0844 21.6871 19.2105 21.3142 19.2105ZM16.0511 24.4736C15.6783 24.4736 15.3658 24.3476 15.1136 24.0954C14.8614 23.8432 14.7353 23.5307 14.7353 23.1579C14.7353 22.7851 14.8614 22.4726 15.1136 22.2204C15.3658 21.9682 15.6783 21.8421 16.0511 21.8421C16.4239 21.8421 16.7364 21.9682 16.9886 22.2204C17.2408 22.4726 17.3669 22.7851 17.3669 23.1579C17.3669 23.5307 17.2408 23.8432 16.9886 24.0954C16.7364 24.3476 16.4239 24.4736 16.0511 24.4736ZM10.7879 24.4736C10.4151 24.4736 10.1026 24.3476 9.85043 24.0954C9.59824 23.8432 9.47214 23.5307 9.47214 23.1579C9.47214 22.7851 9.59824 22.4726 9.85043 22.2204C10.1026 21.9682 10.4151 21.8421 10.7879 21.8421C11.1607 21.8421 11.4732 21.9682 11.7254 22.2204C11.9776 22.4726 12.1037 22.7851 12.1037 23.1579C12.1037 23.5307 11.9776 23.8432 11.7254 24.0954C11.4732 24.3476 11.1607 24.4736 10.7879 24.4736ZM21.3142 24.4736C20.9414 24.4736 20.6289 24.3476 20.3767 24.0954C20.1246 23.8432 19.9985 23.5307 19.9985 23.1579C19.9985 22.7851 20.1246 22.4726 20.3767 22.2204C20.6289 21.9682 20.9414 21.8421 21.3142 21.8421C21.6871 21.8421 21.9996 21.9682 22.2517 22.2204C22.5039 22.4726 22.63 22.7851 22.63 23.1579C22.63 23.5307 22.5039 23.8432 22.2517 24.0954C21.9996 24.3476 21.6871 24.4736 21.3142 24.4736Z" fill="#202020"/>
</svg>
