<svg width="31" height="32" viewBox="0 0 31 32" fill="none" xmlns="http://www.w3.org/2000/svg">
<path d="M4.92352 27.2895C4.41475 27.2895 3.96957 27.0987 3.58799 26.7171C3.20641 26.3355 3.01562 25.8903 3.01562 25.3816V10.1184C3.01562 9.60965 3.20641 9.16447 3.58799 8.78289C3.96957 8.40131 4.41475 8.21052 4.92352 8.21052H10.6472V5.0307C10.6472 4.52193 10.838 4.07675 11.2196 3.69517C11.6012 3.31359 12.0463 3.1228 12.5551 3.1228H18.9147C19.4235 3.1228 19.8687 3.31359 20.2503 3.69517C20.6319 4.07675 20.8226 4.52193 20.8226 5.0307V8.21052H26.5463C27.0551 8.21052 27.5003 8.40131 27.8819 8.78289C28.2634 9.16447 28.4542 9.60965 28.4542 10.1184V25.3816C28.4542 25.8903 28.2634 26.3355 27.8819 26.7171C27.5003 27.0987 27.0551 27.2895 26.5463 27.2895H4.92352ZM4.92352 25.3816H26.5463V10.1184H4.92352V25.3816ZM12.5551 8.21052H18.9147V5.0307H12.5551V8.21052Z" fill="#202020"/>
</svg>
