<svg width="572" height="158" viewBox="0 0 572 158" fill="none" xmlns="http://www.w3.org/2000/svg">
<mask id="mask0_2415_1206" style="mask-type:alpha" maskUnits="userSpaceOnUse" x="0" y="0" width="572" height="572">
<circle cx="286" cy="286" r="286" fill="#D9D9D9"/>
</mask>
<g mask="url(#mask0_2415_1206)">
<ellipse cx="14" cy="83" rx="3" ry="3" transform="rotate(90 14 83)" fill="#D9D9D9"/>
<ellipse cx="206" cy="83" rx="3" ry="3" transform="rotate(90 206 83)" fill="#D9D9D9"/>
<ellipse cx="14" cy="11" rx="3" ry="3" transform="rotate(90 14 11)" fill="#D9D9D9"/>
<ellipse cx="14" cy="155" rx="3" ry="3" transform="rotate(90 14 155)" fill="#D9D9D9"/>
<ellipse cx="206" cy="11" rx="3" ry="3" transform="rotate(90 206 11)" fill="#D9D9D9"/>
<ellipse cx="206" cy="155" rx="3" ry="3" transform="rotate(90 206 155)" fill="#D9D9D9"/>
<ellipse cx="38" cy="83" rx="3" ry="3" transform="rotate(90 38 83)" fill="#D9D9D9"/>
<ellipse cx="230" cy="83" rx="3" ry="3" transform="rotate(90 230 83)" fill="#D9D9D9"/>
<ellipse cx="38" cy="11" rx="3" ry="3" transform="rotate(90 38 11)" fill="#D9D9D9"/>
<ellipse cx="38" cy="155" rx="3" ry="3" transform="rotate(90 38 155)" fill="#D9D9D9"/>
<ellipse cx="230" cy="11" rx="3" ry="3" transform="rotate(90 230 11)" fill="#D9D9D9"/>
<ellipse cx="230" cy="155" rx="3" ry="3" transform="rotate(90 230 155)" fill="#D9D9D9"/>
<ellipse cx="62" cy="83" rx="3" ry="3" transform="rotate(90 62 83)" fill="#D9D9D9"/>
<ellipse cx="254" cy="83" rx="3" ry="3" transform="rotate(90 254 83)" fill="#D9D9D9"/>
<ellipse cx="62" cy="11" rx="3" ry="3" transform="rotate(90 62 11)" fill="#D9D9D9"/>
<ellipse cx="62" cy="155" rx="3" ry="3" transform="rotate(90 62 155)" fill="#D9D9D9"/>
<ellipse cx="254" cy="11" rx="3" ry="3" transform="rotate(90 254 11)" fill="#D9D9D9"/>
<ellipse cx="254" cy="155" rx="3" ry="3" transform="rotate(90 254 155)" fill="#D9D9D9"/>
<ellipse cx="182" cy="83" rx="3" ry="3" transform="rotate(90 182 83)" fill="#D9D9D9"/>
<ellipse cx="182" cy="11" rx="3" ry="3" transform="rotate(90 182 11)" fill="#D9D9D9"/>
<ellipse cx="182" cy="155" rx="3" ry="3" transform="rotate(90 182 155)" fill="#D9D9D9"/>
<ellipse cx="158" cy="83" rx="3" ry="3" transform="rotate(90 158 83)" fill="#D9D9D9"/>
<ellipse cx="158" cy="11" rx="3" ry="3" transform="rotate(90 158 11)" fill="#D9D9D9"/>
<ellipse cx="158" cy="155" rx="3" ry="3" transform="rotate(90 158 155)" fill="#D9D9D9"/>
<ellipse cx="134" cy="83" rx="3" ry="3" transform="rotate(90 134 83)" fill="#D9D9D9"/>
<ellipse cx="134" cy="11" rx="3" ry="3" transform="rotate(90 134 11)" fill="#D9D9D9"/>
<ellipse cx="134" cy="155" rx="3" ry="3" transform="rotate(90 134 155)" fill="#D9D9D9"/>
<ellipse cx="110" cy="83" rx="3" ry="3" transform="rotate(90 110 83)" fill="#D9D9D9"/>
<ellipse cx="110" cy="11" rx="3" ry="3" transform="rotate(90 110 11)" fill="#D9D9D9"/>
<ellipse cx="110" cy="155" rx="3" ry="3" transform="rotate(90 110 155)" fill="#D9D9D9"/>
<ellipse cx="86" cy="83" rx="3" ry="3" transform="rotate(90 86 83)" fill="#D9D9D9"/>
<ellipse cx="86" cy="11" rx="3" ry="3" transform="rotate(90 86 11)" fill="#D9D9D9"/>
<ellipse cx="86" cy="155" rx="3" ry="3" transform="rotate(90 86 155)" fill="#D9D9D9"/>
<ellipse cx="14" cy="107" rx="3" ry="3" transform="rotate(90 14 107)" fill="#D9D9D9"/>
<ellipse cx="206" cy="107" rx="3" ry="3" transform="rotate(90 206 107)" fill="#D9D9D9"/>
<ellipse cx="14" cy="35" rx="3" ry="3" transform="rotate(90 14 35)" fill="#D9D9D9"/>
<ellipse cx="206" cy="35" rx="3" ry="3" transform="rotate(90 206 35)" fill="#D9D9D9"/>
<ellipse cx="38" cy="107" rx="3" ry="3" transform="rotate(90 38 107)" fill="#D9D9D9"/>
<ellipse cx="230" cy="107" rx="3" ry="3" transform="rotate(90 230 107)" fill="#D9D9D9"/>
<ellipse cx="38" cy="35" rx="3" ry="3" transform="rotate(90 38 35)" fill="#D9D9D9"/>
<ellipse cx="230" cy="35" rx="3" ry="3" transform="rotate(90 230 35)" fill="#D9D9D9"/>
<ellipse cx="62" cy="107" rx="3" ry="3" transform="rotate(90 62 107)" fill="#D9D9D9"/>
<ellipse cx="254" cy="107" rx="3" ry="3" transform="rotate(90 254 107)" fill="#D9D9D9"/>
<ellipse cx="62" cy="35" rx="3" ry="3" transform="rotate(90 62 35)" fill="#D9D9D9"/>
<ellipse cx="254" cy="35" rx="3" ry="3" transform="rotate(90 254 35)" fill="#D9D9D9"/>
<ellipse cx="182" cy="107" rx="3" ry="3" transform="rotate(90 182 107)" fill="#D9D9D9"/>
<ellipse cx="182" cy="35" rx="3" ry="3" transform="rotate(90 182 35)" fill="#D9D9D9"/>
<ellipse cx="158" cy="107" rx="3" ry="3" transform="rotate(90 158 107)" fill="#D9D9D9"/>
<ellipse cx="158" cy="35" rx="3" ry="3" transform="rotate(90 158 35)" fill="#D9D9D9"/>
<ellipse cx="134" cy="107" rx="3" ry="3" transform="rotate(90 134 107)" fill="#D9D9D9"/>
<ellipse cx="134" cy="35" rx="3" ry="3" transform="rotate(90 134 35)" fill="#D9D9D9"/>
<ellipse cx="110" cy="107" rx="3" ry="3" transform="rotate(90 110 107)" fill="#D9D9D9"/>
<ellipse cx="110" cy="35" rx="3" ry="3" transform="rotate(90 110 35)" fill="#D9D9D9"/>
<ellipse cx="86" cy="107" rx="3" ry="3" transform="rotate(90 86 107)" fill="#D9D9D9"/>
<ellipse cx="86" cy="35" rx="3" ry="3" transform="rotate(90 86 35)" fill="#D9D9D9"/>
<ellipse cx="14" cy="131" rx="3" ry="3" transform="rotate(90 14 131)" fill="#D9D9D9"/>
<ellipse cx="206" cy="131" rx="3" ry="3" transform="rotate(90 206 131)" fill="#D9D9D9"/>
<ellipse cx="14" cy="59" rx="3" ry="3" transform="rotate(90 14 59)" fill="#D9D9D9"/>
<ellipse cx="206" cy="59" rx="3" ry="3" transform="rotate(90 206 59)" fill="#D9D9D9"/>
<ellipse cx="38" cy="131" rx="3" ry="3" transform="rotate(90 38 131)" fill="#D9D9D9"/>
<ellipse cx="230" cy="131" rx="3" ry="3" transform="rotate(90 230 131)" fill="#D9D9D9"/>
<ellipse cx="38" cy="59" rx="3" ry="3" transform="rotate(90 38 59)" fill="#D9D9D9"/>
<ellipse cx="230" cy="59" rx="3" ry="3" transform="rotate(90 230 59)" fill="#D9D9D9"/>
<ellipse cx="62" cy="131" rx="3" ry="3" transform="rotate(90 62 131)" fill="#D9D9D9"/>
<ellipse cx="254" cy="131" rx="3" ry="3" transform="rotate(90 254 131)" fill="#D9D9D9"/>
<ellipse cx="62" cy="59" rx="3" ry="3" transform="rotate(90 62 59)" fill="#D9D9D9"/>
<ellipse cx="254" cy="59" rx="3" ry="3" transform="rotate(90 254 59)" fill="#D9D9D9"/>
<ellipse cx="182" cy="131" rx="3" ry="3" transform="rotate(90 182 131)" fill="#D9D9D9"/>
<ellipse cx="182" cy="59" rx="3" ry="3" transform="rotate(90 182 59)" fill="#D9D9D9"/>
<ellipse cx="158" cy="131" rx="3" ry="3" transform="rotate(90 158 131)" fill="#D9D9D9"/>
<ellipse cx="158" cy="59" rx="3" ry="3" transform="rotate(90 158 59)" fill="#D9D9D9"/>
<ellipse cx="134" cy="131" rx="3" ry="3" transform="rotate(90 134 131)" fill="#D9D9D9"/>
<ellipse cx="134" cy="59" rx="3" ry="3" transform="rotate(90 134 59)" fill="#D9D9D9"/>
<ellipse cx="110" cy="131" rx="3" ry="3" transform="rotate(90 110 131)" fill="#D9D9D9"/>
<ellipse cx="110" cy="59" rx="3" ry="3" transform="rotate(90 110 59)" fill="#D9D9D9"/>
<ellipse cx="86" cy="131" rx="3" ry="3" transform="rotate(90 86 131)" fill="#D9D9D9"/>
<ellipse cx="86" cy="59" rx="3" ry="3" transform="rotate(90 86 59)" fill="#D9D9D9"/>
<ellipse cx="398" cy="83" rx="3" ry="3" transform="rotate(90 398 83)" fill="#D9D9D9"/>
<ellipse cx="398" cy="11" rx="3" ry="3" transform="rotate(90 398 11)" fill="#D9D9D9"/>
<ellipse cx="398" cy="155" rx="3" ry="3" transform="rotate(90 398 155)" fill="#D9D9D9"/>
<ellipse cx="422" cy="83" rx="3" ry="3" transform="rotate(90 422 83)" fill="#D9D9D9"/>
<ellipse cx="422" cy="11" rx="3" ry="3" transform="rotate(90 422 11)" fill="#D9D9D9"/>
<ellipse cx="422" cy="155" rx="3" ry="3" transform="rotate(90 422 155)" fill="#D9D9D9"/>
<ellipse cx="446" cy="83" rx="3" ry="3" transform="rotate(90 446 83)" fill="#D9D9D9"/>
<ellipse cx="446" cy="11" rx="3" ry="3" transform="rotate(90 446 11)" fill="#D9D9D9"/>
<ellipse cx="446" cy="155" rx="3" ry="3" transform="rotate(90 446 155)" fill="#D9D9D9"/>
<ellipse cx="374" cy="83" rx="3" ry="3" transform="rotate(90 374 83)" fill="#D9D9D9"/>
<ellipse cx="566" cy="83" rx="3" ry="3" transform="rotate(90 566 83)" fill="#D9D9D9"/>
<ellipse cx="374" cy="11" rx="3" ry="3" transform="rotate(90 374 11)" fill="#D9D9D9"/>
<ellipse cx="374" cy="155" rx="3" ry="3" transform="rotate(90 374 155)" fill="#D9D9D9"/>
<ellipse cx="566" cy="11" rx="3" ry="3" transform="rotate(90 566 11)" fill="#D9D9D9"/>
<ellipse cx="566" cy="155" rx="3" ry="3" transform="rotate(90 566 155)" fill="#D9D9D9"/>
<ellipse cx="350" cy="83" rx="3" ry="3" transform="rotate(90 350 83)" fill="#D9D9D9"/>
<ellipse cx="542" cy="83" rx="3" ry="3" transform="rotate(90 542 83)" fill="#D9D9D9"/>
<ellipse cx="350" cy="11" rx="3" ry="3" transform="rotate(90 350 11)" fill="#D9D9D9"/>
<ellipse cx="350" cy="155" rx="3" ry="3" transform="rotate(90 350 155)" fill="#D9D9D9"/>
<ellipse cx="542" cy="11" rx="3" ry="3" transform="rotate(90 542 11)" fill="#D9D9D9"/>
<ellipse cx="542" cy="155" rx="3" ry="3" transform="rotate(90 542 155)" fill="#D9D9D9"/>
<ellipse cx="326" cy="83" rx="3" ry="3" transform="rotate(90 326 83)" fill="#D9D9D9"/>
<ellipse cx="518" cy="83" rx="3" ry="3" transform="rotate(90 518 83)" fill="#D9D9D9"/>
<ellipse cx="326" cy="11" rx="3" ry="3" transform="rotate(90 326 11)" fill="#D9D9D9"/>
<ellipse cx="326" cy="155" rx="3" ry="3" transform="rotate(90 326 155)" fill="#D9D9D9"/>
<ellipse cx="518" cy="11" rx="3" ry="3" transform="rotate(90 518 11)" fill="#D9D9D9"/>
<ellipse cx="518" cy="155" rx="3" ry="3" transform="rotate(90 518 155)" fill="#D9D9D9"/>
<ellipse cx="302" cy="83" rx="3" ry="3" transform="rotate(90 302 83)" fill="#D9D9D9"/>
<ellipse cx="494" cy="83" rx="3" ry="3" transform="rotate(90 494 83)" fill="#D9D9D9"/>
<ellipse cx="302" cy="11" rx="3" ry="3" transform="rotate(90 302 11)" fill="#D9D9D9"/>
<ellipse cx="302" cy="155" rx="3" ry="3" transform="rotate(90 302 155)" fill="#D9D9D9"/>
<ellipse cx="494" cy="11" rx="3" ry="3" transform="rotate(90 494 11)" fill="#D9D9D9"/>
<ellipse cx="494" cy="155" rx="3" ry="3" transform="rotate(90 494 155)" fill="#D9D9D9"/>
<ellipse cx="278" cy="83" rx="3" ry="3" transform="rotate(90 278 83)" fill="#D9D9D9"/>
<ellipse cx="470" cy="83" rx="3" ry="3" transform="rotate(90 470 83)" fill="#D9D9D9"/>
<ellipse cx="278" cy="11" rx="3" ry="3" transform="rotate(90 278 11)" fill="#D9D9D9"/>
<ellipse cx="278" cy="155" rx="3" ry="3" transform="rotate(90 278 155)" fill="#D9D9D9"/>
<ellipse cx="470" cy="11" rx="3" ry="3" transform="rotate(90 470 11)" fill="#D9D9D9"/>
<ellipse cx="470" cy="155" rx="3" ry="3" transform="rotate(90 470 155)" fill="#D9D9D9"/>
<ellipse cx="398" cy="107" rx="3" ry="3" transform="rotate(90 398 107)" fill="#D9D9D9"/>
<ellipse cx="398" cy="35" rx="3" ry="3" transform="rotate(90 398 35)" fill="#D9D9D9"/>
<ellipse cx="422" cy="107" rx="3" ry="3" transform="rotate(90 422 107)" fill="#D9D9D9"/>
<ellipse cx="422" cy="35" rx="3" ry="3" transform="rotate(90 422 35)" fill="#D9D9D9"/>
<ellipse cx="446" cy="107" rx="3" ry="3" transform="rotate(90 446 107)" fill="#D9D9D9"/>
<ellipse cx="446" cy="35" rx="3" ry="3" transform="rotate(90 446 35)" fill="#D9D9D9"/>
<ellipse cx="374" cy="107" rx="3" ry="3" transform="rotate(90 374 107)" fill="#D9D9D9"/>
<ellipse cx="566" cy="107" rx="3" ry="3" transform="rotate(90 566 107)" fill="#D9D9D9"/>
<ellipse cx="374" cy="35" rx="3" ry="3" transform="rotate(90 374 35)" fill="#D9D9D9"/>
<ellipse cx="566" cy="35" rx="3" ry="3" transform="rotate(90 566 35)" fill="#D9D9D9"/>
<ellipse cx="350" cy="107" rx="3" ry="3" transform="rotate(90 350 107)" fill="#D9D9D9"/>
<ellipse cx="542" cy="107" rx="3" ry="3" transform="rotate(90 542 107)" fill="#D9D9D9"/>
<ellipse cx="350" cy="35" rx="3" ry="3" transform="rotate(90 350 35)" fill="#D9D9D9"/>
<ellipse cx="542" cy="35" rx="3" ry="3" transform="rotate(90 542 35)" fill="#D9D9D9"/>
<ellipse cx="326" cy="107" rx="3" ry="3" transform="rotate(90 326 107)" fill="#D9D9D9"/>
<ellipse cx="518" cy="107" rx="3" ry="3" transform="rotate(90 518 107)" fill="#D9D9D9"/>
<ellipse cx="326" cy="35" rx="3" ry="3" transform="rotate(90 326 35)" fill="#D9D9D9"/>
<ellipse cx="518" cy="35" rx="3" ry="3" transform="rotate(90 518 35)" fill="#D9D9D9"/>
<ellipse cx="302" cy="107" rx="3" ry="3" transform="rotate(90 302 107)" fill="#D9D9D9"/>
<ellipse cx="494" cy="107" rx="3" ry="3" transform="rotate(90 494 107)" fill="#D9D9D9"/>
<ellipse cx="302" cy="35" rx="3" ry="3" transform="rotate(90 302 35)" fill="#D9D9D9"/>
<ellipse cx="494" cy="35" rx="3" ry="3" transform="rotate(90 494 35)" fill="#D9D9D9"/>
<ellipse cx="278" cy="107" rx="3" ry="3" transform="rotate(90 278 107)" fill="#D9D9D9"/>
<ellipse cx="470" cy="107" rx="3" ry="3" transform="rotate(90 470 107)" fill="#D9D9D9"/>
<ellipse cx="278" cy="35" rx="3" ry="3" transform="rotate(90 278 35)" fill="#D9D9D9"/>
<ellipse cx="470" cy="35" rx="3" ry="3" transform="rotate(90 470 35)" fill="#D9D9D9"/>
<ellipse cx="398" cy="131" rx="3" ry="3" transform="rotate(90 398 131)" fill="#D9D9D9"/>
<ellipse cx="398" cy="59" rx="3" ry="3" transform="rotate(90 398 59)" fill="#D9D9D9"/>
<ellipse cx="422" cy="131" rx="3" ry="3" transform="rotate(90 422 131)" fill="#D9D9D9"/>
<ellipse cx="422" cy="59" rx="3" ry="3" transform="rotate(90 422 59)" fill="#D9D9D9"/>
<ellipse cx="446" cy="131" rx="3" ry="3" transform="rotate(90 446 131)" fill="#D9D9D9"/>
<ellipse cx="446" cy="59" rx="3" ry="3" transform="rotate(90 446 59)" fill="#D9D9D9"/>
<ellipse cx="374" cy="131" rx="3" ry="3" transform="rotate(90 374 131)" fill="#D9D9D9"/>
<ellipse cx="566" cy="131" rx="3" ry="3" transform="rotate(90 566 131)" fill="#D9D9D9"/>
<ellipse cx="374" cy="59" rx="3" ry="3" transform="rotate(90 374 59)" fill="#D9D9D9"/>
<ellipse cx="566" cy="59" rx="3" ry="3" transform="rotate(90 566 59)" fill="#D9D9D9"/>
<ellipse cx="350" cy="131" rx="3" ry="3" transform="rotate(90 350 131)" fill="#D9D9D9"/>
<ellipse cx="542" cy="131" rx="3" ry="3" transform="rotate(90 542 131)" fill="#D9D9D9"/>
<ellipse cx="350" cy="59" rx="3" ry="3" transform="rotate(90 350 59)" fill="#D9D9D9"/>
<ellipse cx="542" cy="59" rx="3" ry="3" transform="rotate(90 542 59)" fill="#D9D9D9"/>
<ellipse cx="326" cy="131" rx="3" ry="3" transform="rotate(90 326 131)" fill="#D9D9D9"/>
<ellipse cx="518" cy="131" rx="3" ry="3" transform="rotate(90 518 131)" fill="#D9D9D9"/>
<ellipse cx="326" cy="59" rx="3" ry="3" transform="rotate(90 326 59)" fill="#D9D9D9"/>
<ellipse cx="518" cy="59" rx="3" ry="3" transform="rotate(90 518 59)" fill="#D9D9D9"/>
<ellipse cx="302" cy="131" rx="3" ry="3" transform="rotate(90 302 131)" fill="#D9D9D9"/>
<ellipse cx="494" cy="131" rx="3" ry="3" transform="rotate(90 494 131)" fill="#D9D9D9"/>
<ellipse cx="302" cy="59" rx="3" ry="3" transform="rotate(90 302 59)" fill="#D9D9D9"/>
<ellipse cx="494" cy="59" rx="3" ry="3" transform="rotate(90 494 59)" fill="#D9D9D9"/>
<ellipse cx="278" cy="131" rx="3" ry="3" transform="rotate(90 278 131)" fill="#D9D9D9"/>
<ellipse cx="470" cy="131" rx="3" ry="3" transform="rotate(90 470 131)" fill="#D9D9D9"/>
<ellipse cx="278" cy="59" rx="3" ry="3" transform="rotate(90 278 59)" fill="#D9D9D9"/>
<ellipse cx="470" cy="59" rx="3" ry="3" transform="rotate(90 470 59)" fill="#D9D9D9"/>
</g>
</svg>
