<svg width="135" height="254" viewBox="0 0 135 254" fill="none" xmlns="http://www.w3.org/2000/svg">
<mask id="mask0_2415_1595" style="mask-type:alpha" maskUnits="userSpaceOnUse" x="0" y="-179" width="433" height="433">
<circle cx="216.5" cy="37.5" r="216.5" fill="#D9D9D9"/>
</mask>
<g mask="url(#mask0_2415_1595)">
<ellipse cx="123" cy="34" rx="3" ry="3" transform="rotate(90 123 34)" fill="#D9D9D9"/>
<ellipse cx="123" cy="178" rx="3" ry="3" transform="rotate(90 123 178)" fill="#D9D9D9"/>
<ellipse cx="123" cy="106" rx="3" ry="3" transform="rotate(90 123 106)" fill="#D9D9D9"/>
<ellipse cx="99" cy="34" rx="3" ry="3" transform="rotate(90 99 34)" fill="#D9D9D9"/>
<ellipse cx="99" cy="178" rx="3" ry="3" transform="rotate(90 99 178)" fill="#D9D9D9"/>
<ellipse cx="99" cy="106" rx="3" ry="3" transform="rotate(90 99 106)" fill="#D9D9D9"/>
<ellipse cx="75" cy="34" rx="3" ry="3" transform="rotate(90 75 34)" fill="#D9D9D9"/>
<ellipse cx="75" cy="178" rx="3" ry="3" transform="rotate(90 75 178)" fill="#D9D9D9"/>
<ellipse cx="75" cy="106" rx="3" ry="3" transform="rotate(90 75 106)" fill="#D9D9D9"/>
<ellipse cx="51" cy="34" rx="3" ry="3" transform="rotate(90 51 34)" fill="#D9D9D9"/>
<ellipse cx="51" cy="178" rx="3" ry="3" transform="rotate(90 51 178)" fill="#D9D9D9"/>
<ellipse cx="51" cy="106" rx="3" ry="3" transform="rotate(90 51 106)" fill="#D9D9D9"/>
<ellipse cx="27" cy="34" rx="3" ry="3" transform="rotate(90 27 34)" fill="#D9D9D9"/>
<ellipse cx="27" cy="178" rx="3" ry="3" transform="rotate(90 27 178)" fill="#D9D9D9"/>
<ellipse cx="27" cy="106" rx="3" ry="3" transform="rotate(90 27 106)" fill="#D9D9D9"/>
<ellipse cx="3" cy="34" rx="3" ry="3" transform="rotate(90 3 34)" fill="#D9D9D9"/>
<ellipse cx="3" cy="178" rx="3" ry="3" transform="rotate(90 3 178)" fill="#D9D9D9"/>
<ellipse cx="3" cy="106" rx="3" ry="3" transform="rotate(90 3 106)" fill="#D9D9D9"/>
<ellipse cx="123" cy="58" rx="3" ry="3" transform="rotate(90 123 58)" fill="#D9D9D9"/>
<ellipse cx="123" cy="202" rx="3" ry="3" transform="rotate(90 123 202)" fill="#D9D9D9"/>
<ellipse cx="123" cy="130" rx="3" ry="3" transform="rotate(90 123 130)" fill="#D9D9D9"/>
<ellipse cx="99" cy="58" rx="3" ry="3" transform="rotate(90 99 58)" fill="#D9D9D9"/>
<ellipse cx="99" cy="202" rx="3" ry="3" transform="rotate(90 99 202)" fill="#D9D9D9"/>
<ellipse cx="99" cy="130" rx="3" ry="3" transform="rotate(90 99 130)" fill="#D9D9D9"/>
<ellipse cx="75" cy="58" rx="3" ry="3" transform="rotate(90 75 58)" fill="#D9D9D9"/>
<ellipse cx="75" cy="202" rx="3" ry="3" transform="rotate(90 75 202)" fill="#D9D9D9"/>
<ellipse cx="75" cy="130" rx="3" ry="3" transform="rotate(90 75 130)" fill="#D9D9D9"/>
<ellipse cx="51" cy="58" rx="3" ry="3" transform="rotate(90 51 58)" fill="#D9D9D9"/>
<ellipse cx="51" cy="202" rx="3" ry="3" transform="rotate(90 51 202)" fill="#D9D9D9"/>
<ellipse cx="51" cy="130" rx="3" ry="3" transform="rotate(90 51 130)" fill="#D9D9D9"/>
<ellipse cx="27" cy="58" rx="3" ry="3" transform="rotate(90 27 58)" fill="#D9D9D9"/>
<ellipse cx="27" cy="202" rx="3" ry="3" transform="rotate(90 27 202)" fill="#D9D9D9"/>
<ellipse cx="27" cy="130" rx="3" ry="3" transform="rotate(90 27 130)" fill="#D9D9D9"/>
<ellipse cx="3" cy="58" rx="3" ry="3" transform="rotate(90 3 58)" fill="#D9D9D9"/>
<ellipse cx="3" cy="202" rx="3" ry="3" transform="rotate(90 3 202)" fill="#D9D9D9"/>
<ellipse cx="3" cy="130" rx="3" ry="3" transform="rotate(90 3 130)" fill="#D9D9D9"/>
<ellipse cx="123" cy="82" rx="3" ry="3" transform="rotate(90 123 82)" fill="#D9D9D9"/>
<ellipse cx="123" cy="226" rx="3" ry="3" transform="rotate(90 123 226)" fill="#D9D9D9"/>
<ellipse cx="123" cy="10" rx="3" ry="3" transform="rotate(90 123 10)" fill="#D9D9D9"/>
<ellipse cx="123" cy="154" rx="3" ry="3" transform="rotate(90 123 154)" fill="#D9D9D9"/>
<ellipse cx="99" cy="82" rx="3" ry="3" transform="rotate(90 99 82)" fill="#D9D9D9"/>
<ellipse cx="99" cy="226" rx="3" ry="3" transform="rotate(90 99 226)" fill="#D9D9D9"/>
<ellipse cx="99" cy="10" rx="3" ry="3" transform="rotate(90 99 10)" fill="#D9D9D9"/>
<ellipse cx="99" cy="154" rx="3" ry="3" transform="rotate(90 99 154)" fill="#D9D9D9"/>
<ellipse cx="75" cy="82" rx="3" ry="3" transform="rotate(90 75 82)" fill="#D9D9D9"/>
<ellipse cx="75" cy="226" rx="3" ry="3" transform="rotate(90 75 226)" fill="#D9D9D9"/>
<ellipse cx="75" cy="10" rx="3" ry="3" transform="rotate(90 75 10)" fill="#D9D9D9"/>
<ellipse cx="75" cy="154" rx="3" ry="3" transform="rotate(90 75 154)" fill="#D9D9D9"/>
<ellipse cx="51" cy="82" rx="3" ry="3" transform="rotate(90 51 82)" fill="#D9D9D9"/>
<ellipse cx="51" cy="226" rx="3" ry="3" transform="rotate(90 51 226)" fill="#D9D9D9"/>
<ellipse cx="51" cy="10" rx="3" ry="3" transform="rotate(90 51 10)" fill="#D9D9D9"/>
<ellipse cx="51" cy="154" rx="3" ry="3" transform="rotate(90 51 154)" fill="#D9D9D9"/>
<ellipse cx="27" cy="82" rx="3" ry="3" transform="rotate(90 27 82)" fill="#D9D9D9"/>
<ellipse cx="27" cy="226" rx="3" ry="3" transform="rotate(90 27 226)" fill="#D9D9D9"/>
<ellipse cx="27" cy="10" rx="3" ry="3" transform="rotate(90 27 10)" fill="#D9D9D9"/>
<ellipse cx="27" cy="154" rx="3" ry="3" transform="rotate(90 27 154)" fill="#D9D9D9"/>
<ellipse cx="3" cy="82" rx="3" ry="3" transform="rotate(90 3 82)" fill="#D9D9D9"/>
<ellipse cx="3" cy="226" rx="3" ry="3" transform="rotate(90 3 226)" fill="#D9D9D9"/>
<ellipse cx="3" cy="10" rx="3" ry="3" transform="rotate(90 3 10)" fill="#D9D9D9"/>
<ellipse cx="3" cy="154" rx="3" ry="3" transform="rotate(90 3 154)" fill="#D9D9D9"/>
</g>
</svg>
