<svg width="45" height="45" viewBox="0 0 45 45" fill="none" xmlns="http://www.w3.org/2000/svg">
<path fill-rule="evenodd" clip-rule="evenodd" d="M22.5 45C34.9264 45 45 34.9264 45 22.5C45 10.0736 34.9264 0 22.5 0C10.0736 0 0 10.0736 0 22.5C0 34.9264 10.0736 45 22.5 45ZM31.9156 21.7929L25.5516 15.4289C25.1611 15.0384 24.5279 15.0384 24.1374 15.4289C23.7469 15.8195 23.7469 16.4526 24.1374 16.8431L28.7943 21.5H22.1359H13.0633V23.5H22.1359H28.7943L24.1374 28.1569C23.7469 28.5474 23.7469 29.1805 24.1374 29.5711C24.5279 29.9616 25.1611 29.9616 25.5516 29.5711L31.9156 23.2071C32.3061 22.8166 32.3061 22.1834 31.9156 21.7929Z" fill="#9D101E"/>
</svg>
