<svg width="36" height="36" viewBox="0 0 36 36" fill="none" xmlns="http://www.w3.org/2000/svg">
<g clip-path="url(#clip0_384_72)">
<path d="M10 0C4.47715 0 0 4.47715 0 10V26C0 31.5228 4.47715 36 10 36H26C31.5228 36 36 31.5228 36 26V10C36 4.47715 31.5228 0 26 0H10ZM25.1859 15.2016C25.193 15.3563 25.193 15.518 25.193 15.6797C25.193 20.5664 21.4734 26.2055 14.6672 26.2055C12.5789 26.2055 10.6313 25.5938 9 24.5461C9.28828 24.5813 9.58359 24.5953 9.88594 24.5953C11.6156 24.5953 13.2117 24.0047 14.4773 23.0133C12.8602 22.9852 11.4891 21.9164 11.025 20.4469C11.25 20.4891 11.482 20.5102 11.7211 20.5102C12.0586 20.5102 12.3891 20.468 12.6984 20.3766C11.0039 20.0391 9.73125 18.5414 9.73125 16.7484V16.7063C10.2305 16.9805 10.8 17.1492 11.4047 17.1703C10.4133 16.5094 9.75938 15.3703 9.75938 14.0906C9.75938 13.4156 9.94219 12.7758 10.2586 12.2273C12.0867 14.4703 14.8078 15.9398 17.8805 16.0945C17.8172 15.8273 17.782 15.5461 17.782 15.2508C17.782 13.2117 19.4414 11.5523 21.4805 11.5523C22.5422 11.5523 23.5055 12.0023 24.1805 12.7195C25.0242 12.5508 25.8117 12.2484 26.5289 11.8195C26.2547 12.6844 25.6641 13.4086 24.9047 13.8656C25.65 13.7742 26.3672 13.5773 27.0281 13.282C26.5359 14.0273 25.9102 14.6742 25.1859 15.2016Z" fill="black"/>
</g>
<defs>
<clipPath id="clip0_384_72">
<rect width="36" height="36" fill="white"/>
</clipPath>
</defs>
</svg>
