<svg width="517" height="353" viewBox="0 0 517 353" fill="none" xmlns="http://www.w3.org/2000/svg">
<path d="M691.895 176.131C676.982 191.658 655.898 201.454 642.836 180.564C617.43 139.929 636.584 93.4704 608.718 52.9431C592.912 29.9565 558.327 10.0424 517.74 23.1508C450.932 44.7284 430.972 97.878 383.89 132.32C361.682 148.566 313.246 189.27 273.395 187.028C245.956 185.801 231.33 147.653 231.731 132.764C232.414 107.474 260.177 91.9568 268.64 106.14C294.994 150.304 211.105 228.504 41.3518 187.028" stroke="#C5C5C5" stroke-width="2" stroke-linecap="round"/>
<path d="M100.523 214.268C111.495 218.332 131.533 219.638 161.073 214.792" stroke="#C5C5C5" stroke-width="2" stroke-linecap="round"/>
<path d="M12.3861 163.757C3.05533 164.413 4.32462 175.093 8.36908 177.082C3.58896 177.005 -2.28301 185.586 5.18364 190.637C12.3385 195.601 25.2035 184.223 26.3531 183.297C27.5027 182.37 27.5027 182.37 27.0361 180.748C26.5695 179.125 20.7921 163.218 12.3861 163.757Z" fill="#9D101E"/>
</svg>
