<svg width="512" height="320" viewBox="0 0 512 320" fill="none" xmlns="http://www.w3.org/2000/svg">
<path d="M-225.048 12.0828C-65.0221 -24.6357 -5.85248 47.6654 -8.43188 81.6009C-13.4492 147.61 -65.517 163.125 -68.2874 230.059C-69.8587 268.024 -52.7593 310.005 -8.0359 309.939C65.5826 309.83 119.145 246.638 184.029 220.548C214.633 208.242 284.946 174.271 318.644 194.645C342.06 208.244 329.198 266.199 318.779 286.16C301.082 320.064 266.061 328.968 268.17 306.104C274.736 234.91 429.669 240.184 470.048 237.261" stroke="#C5C5C5" stroke-width="2" stroke-linecap="round"/>
<path d="M505.887 246.572C513.64 241.338 507.201 232.724 502.704 233.024C506.882 230.7 507.676 220.332 498.685 219.692C490.007 218.971 484.554 235.256 484.022 236.633C483.489 238.011 483.489 238.011 484.705 239.182C485.92 240.354 498.877 251.242 505.887 246.572Z" fill="#9D101E"/>
</svg>
