<svg width="28" height="27" viewBox="0 0 28 27" fill="none" xmlns="http://www.w3.org/2000/svg">
<path d="M13.843 24.807C12.2465 24.807 10.7545 24.5192 9.36708 23.9435C7.97966 23.3679 6.77279 22.5866 5.74647 21.5998C4.72015 20.6129 3.91241 19.4479 3.32323 18.1047C2.73404 16.7615 2.43945 15.3224 2.43945 13.7873C2.43945 12.2522 2.73404 10.8222 3.32323 9.49726C3.91241 8.17234 4.72015 7.01645 5.74647 6.02961C6.77279 5.04277 7.97966 4.27066 9.36708 3.71327C10.7545 3.15589 12.2465 2.8772 13.843 2.8772C15.4395 2.8772 16.9314 3.15589 18.3188 3.71327C19.7063 4.27066 20.9131 5.04277 21.9395 6.02961C22.9658 7.01645 23.7735 8.17234 24.3627 9.49726C24.9519 10.8222 25.2465 12.2522 25.2465 13.7873C25.2465 15.3224 24.9519 16.7615 24.3627 18.1047C23.7735 19.4479 22.9658 20.6129 21.9395 21.5998C20.9131 22.5866 19.7063 23.3679 18.3188 23.9435C16.9314 24.5192 15.4395 24.807 13.843 24.807ZM13.843 23.2171C14.5082 22.5592 15.0641 21.8054 15.5107 20.9556C15.9574 20.1058 16.3232 19.0961 16.6083 17.9265H11.1061C11.3722 19.023 11.7286 20.0099 12.1752 20.8871C12.6218 21.7643 13.1778 22.5409 13.843 23.2171ZM11.4197 22.8882C10.9446 22.1937 10.5359 21.4445 10.1938 20.6404C9.85173 19.8363 9.56665 18.9317 9.33858 17.9265H5.06226C5.78448 19.2241 6.62074 20.2429 7.57103 20.983C8.52132 21.7231 9.80422 22.3582 11.4197 22.8882ZM16.2947 22.8608C17.6631 22.4404 18.8938 21.8099 19.9866 20.9693C21.0794 20.1287 21.9585 19.1144 22.6237 17.9265H18.3759C18.1288 18.9134 17.8389 19.8089 17.5063 20.6129C17.1737 21.417 16.7699 22.1663 16.2947 22.8608ZM4.49208 16.2818H9.02498C8.96796 15.7884 8.9347 15.3452 8.9252 14.9523C8.9157 14.5594 8.91094 14.1711 8.91094 13.7873C8.91094 13.3304 8.92045 12.9238 8.93945 12.5674C8.95846 12.2111 8.99647 11.8136 9.05349 11.375H4.49208C4.35904 11.8136 4.26877 12.2065 4.22125 12.5537C4.17374 12.901 4.14998 13.3121 4.14998 13.7873C4.14998 14.2624 4.17374 14.6873 4.22125 15.062C4.26877 15.4366 4.35904 15.8432 4.49208 16.2818ZM10.7925 16.2818H16.9219C16.9979 15.7153 17.0454 15.2538 17.0645 14.8975C17.0835 14.5411 17.093 14.1711 17.093 13.7873C17.093 13.4218 17.0835 13.07 17.0645 12.7319C17.0454 12.3938 16.9979 11.9415 16.9219 11.375H10.7925C10.7165 11.9415 10.669 12.3938 10.65 12.7319C10.631 13.07 10.6215 13.4218 10.6215 13.7873C10.6215 14.1711 10.631 14.5411 10.65 14.8975C10.669 15.2538 10.7165 15.7153 10.7925 16.2818ZM18.6324 16.2818H23.1938C23.3269 15.8432 23.4172 15.4366 23.4647 15.062C23.5122 14.6873 23.5359 14.2624 23.5359 13.7873C23.5359 13.3121 23.5122 12.901 23.4647 12.5537C23.4172 12.2065 23.3269 11.8136 23.1938 11.375H18.6609C18.718 12.0146 18.756 12.5035 18.775 12.8416C18.794 13.1796 18.8035 13.4949 18.8035 13.7873C18.8035 14.1893 18.7892 14.5685 18.7607 14.9249C18.7322 15.2813 18.6895 15.7336 18.6324 16.2818ZM18.3473 9.73027H22.6237C21.9965 8.4693 21.1365 7.4185 20.0436 6.57786C18.9508 5.73721 17.6916 5.14328 16.2662 4.79606C16.7414 5.47223 17.1452 6.20322 17.4778 6.98904C17.8104 7.77486 18.1003 8.6886 18.3473 9.73027ZM11.1061 9.73027H16.6368C16.4278 8.7617 16.0761 7.82511 15.582 6.92051C15.0878 6.0159 14.5082 5.21638 13.843 4.52193C13.2348 5.01536 12.7216 5.66411 12.3035 6.46821C11.8854 7.2723 11.4862 8.35965 11.1061 9.73027ZM5.06226 9.73027H9.36708C9.57615 8.74343 9.84223 7.86166 10.1653 7.08498C10.4884 6.3083 10.8971 5.55446 11.3912 4.82347C9.96577 5.17069 8.72089 5.75549 7.65656 6.57786C6.59223 7.40022 5.72746 8.45103 5.06226 9.73027Z" fill="#202020"/>
</svg>
